<svg width="28" height="28" viewBox="0 0 28 28" fill="none" xmlns="http://www.w3.org/2000/svg">
<path fill-rule="evenodd" clip-rule="evenodd" d="M18 13H15V10C15 9.73478 14.8946 9.48043 14.7071 9.29289C14.5196 9.10536 14.2652 9 14 9C13.7348 9 13.4804 9.10536 13.2929 9.29289C13.1054 9.48043 13 9.73478 13 10V13H10C9.73478 13 9.48043 13.1054 9.29289 13.2929C9.10536 13.4804 9 13.7348 9 14C9 14.2652 9.10536 14.5196 9.29289 14.7071C9.48043 14.8946 9.73478 15 10 15H13V18C13 18.2652 13.1054 18.5196 13.2929 18.7071C13.4804 18.8946 13.7348 19 14 19C14.2652 19 14.5196 18.8946 14.7071 18.7071C14.8946 18.5196 15 18.2652 15 18V15H18C18.2652 15 18.5196 14.8946 18.7071 14.7071C18.8946 14.5196 19 14.2652 19 14C19 13.7348 18.8946 13.4804 18.7071 13.2929C18.5196 13.1054 18.2652 13 18 13Z" fill="#0066FF"/>
</svg>
