<svg width="28" height="28" viewBox="0 0 28 28" fill="none" xmlns="http://www.w3.org/2000/svg">
<g clip-path="url(#clip0_5762_13925)">
<path d="M19.129 6H8.80645C7.81032 6 7 6.81032 7 7.80645V20.1935C7 21.1897 7.81032 22 8.80645 22H19.129C20.1252 22 20.9355 21.1897 20.9355 20.1935V7.80645C20.9355 6.81032 20.1252 6 19.129 6ZM8.54839 20.1935V7.80645C8.54839 7.66194 8.66194 7.54839 8.80645 7.54839H13.1935V20.4516H8.80645C8.66194 20.4516 8.54839 20.3381 8.54839 20.1935ZM19.3871 20.1935C19.3871 20.3381 19.2735 20.4516 19.129 20.4516H14.7419V7.54839H19.129C19.2735 7.54839 19.3871 7.66194 19.3871 7.80645V20.1935Z" fill="#0066FF"/>
</g>
<defs>
<clipPath id="clip0_5762_13925">
<rect width="13.9355" height="16" fill="white" transform="translate(7 6)"/>
</clipPath>
</defs>
</svg>
