<svg width="28" height="28" viewBox="0 0 28 28" fill="none" xmlns="http://www.w3.org/2000/svg">
<path d="M0 14C0 6.26801 6.26801 0 14 0C21.732 0 28 6.26801 28 14C28 21.732 21.732 28 14 28C6.26801 28 0 21.732 0 14Z" fill="#E5EFFF"/>
<path d="M6.24131 13.4521L11.4796 8.21381C11.64 8.05345 11.8538 8 12.0676 8C12.2814 8 12.4952 8.1069 12.6556 8.21381C12.9763 8.53452 12.9763 9.01559 12.6556 9.3363L8.80701 13.1849L21.7959 13.1849C22.2235 13.1849 22.5977 13.559 22.5977 13.9866C22.5977 14.4143 22.2235 14.7884 21.7959 14.7884L8.75356 14.7884L12.6021 18.637C12.9228 18.9577 12.9228 19.4388 12.6021 19.7595C12.2814 20.0802 11.8003 20.0802 11.4796 19.7595L6.24131 14.5212C5.9206 14.2004 5.9206 13.7194 6.24131 13.3987L6.24131 13.4521Z" fill="#0066FF"/>
</svg>
