<svg width="28" height="28" viewBox="0 0 28 28" fill="none" xmlns="http://www.w3.org/2000/svg">
<path d="M16.5345 13.4446C17.0965 12.7923 17.4068 11.9606 17.4095 11.0996C17.4089 10.6174 17.3132 10.1401 17.1279 9.6949C16.9426 9.24974 16.6713 8.84551 16.3295 8.50536C15.9877 8.16521 15.5822 7.89582 15.1361 7.71262C14.6901 7.52942 14.2123 7.43601 13.7301 7.43773H9.57385C9.46109 7.42949 9.34784 7.44459 9.24117 7.48208C9.13451 7.51957 9.03672 7.57865 8.95391 7.65563C8.8711 7.73261 8.80505 7.82583 8.75988 7.92948C8.71472 8.03313 8.69141 8.14498 8.69141 8.25805C8.69141 8.37111 8.71472 8.48296 8.75988 8.58661C8.80505 8.69026 8.8711 8.78348 8.95391 8.86046C9.03672 8.93744 9.13451 8.99652 9.24117 9.03401C9.34784 9.0715 9.46109 9.0866 9.57385 9.07836H9.62635V18.8127H9.57385C9.46109 18.8045 9.34784 18.8196 9.24117 18.8571C9.13451 18.8946 9.03672 18.9537 8.95391 19.0306C8.8711 19.1076 8.80505 19.2008 8.75988 19.3045C8.71472 19.4081 8.69141 19.52 8.69141 19.633C8.69141 19.7461 8.71472 19.858 8.75988 19.9616C8.80505 20.0653 8.8711 20.1585 8.95391 20.2355C9.03672 20.3124 9.13451 20.3715 9.24117 20.409C9.34784 20.4465 9.46109 20.4616 9.57385 20.4534H15.0426C15.8789 20.4503 16.689 20.161 17.3381 19.6337C17.9872 19.1064 18.4362 18.3727 18.6106 17.5548C18.7849 16.7369 18.674 15.8839 18.2963 15.1377C17.9186 14.3916 17.2969 13.7972 16.5345 13.4534V13.4446ZM13.7301 9.06961C14.2505 9.09381 14.7415 9.31757 15.1012 9.69438C15.4609 10.0712 15.6616 10.5721 15.6616 11.093C15.6616 11.614 15.4609 12.1149 15.1012 12.4917C14.7415 12.8685 14.2505 13.0923 13.7301 13.1165H11.267V9.07836L13.7301 9.06961ZM15.0426 18.7996H11.267V14.7659H15.0426C15.308 14.7659 15.5709 14.8181 15.8161 14.9197C16.0613 15.0213 16.2842 15.1702 16.4718 15.3579C16.6595 15.5456 16.8084 15.7684 16.91 16.0136C17.0116 16.2588 17.0639 16.5217 17.0639 16.7871C17.0639 17.0525 17.0116 17.3154 16.91 17.5606C16.8084 17.8058 16.6595 18.0287 16.4718 18.2163C16.2842 18.404 16.0613 18.5529 15.8161 18.6545C15.5709 18.7561 15.308 18.8084 15.0426 18.8084V18.7996Z" fill="#1D2327"/>
</svg>
