<svg width="28" height="28" viewBox="0 0 28 28" fill="none" xmlns="http://www.w3.org/2000/svg">
<path d="M20.238 10.0817H11.6604C11.4534 10.0668 11.2597 9.97536 11.1184 9.8258C10.977 9.67623 10.8984 9.47959 10.8984 9.27538C10.8984 9.07118 10.977 8.87454 11.1184 8.72497C11.2597 8.57541 11.4534 8.484 11.6604 8.46912H20.238C20.4451 8.484 20.6388 8.57541 20.7801 8.72497C20.9215 8.87454 21 9.07118 21 9.27538C21 9.47959 20.9215 9.67623 20.7801 9.8258C20.6388 9.97536 20.4451 10.0668 20.238 10.0817Z" fill="#0066FF"/>
<path d="M20.238 14.3H11.6604C11.4534 14.2852 11.2597 14.1937 11.1184 14.0442C10.977 13.8946 10.8984 13.698 10.8984 13.4938C10.8984 13.2896 10.977 13.0929 11.1184 12.9434C11.2597 12.7938 11.4534 12.7024 11.6604 12.6875H20.238C20.4451 12.7024 20.6388 12.7938 20.7801 12.9434C20.9215 13.0929 21 13.2896 21 13.4938C21 13.698 20.9215 13.8946 20.7801 14.0442C20.6388 14.1937 20.4451 14.2852 20.238 14.3Z" fill="#0066FF"/>
<path d="M20.238 18.5184H11.6604C11.4534 18.5035 11.2597 18.4121 11.1184 18.2626C10.977 18.113 10.8984 17.9164 10.8984 17.7122C10.8984 17.5079 10.977 17.3113 11.1184 17.1617C11.2597 17.0122 11.4534 16.9208 11.6604 16.9059H20.238C20.4451 16.9208 20.6388 17.0122 20.7801 17.1617C20.9215 17.3113 21 17.5079 21 17.7122C21 17.9164 20.9215 18.113 20.7801 18.2626C20.6388 18.4121 20.4451 18.5035 20.238 18.5184Z" fill="#0066FF"/>
<path d="M9.62312 9.29038C9.62305 9.54679 9.54529 9.79736 9.39978 10.0101C9.25426 10.2229 9.04759 10.3881 8.80614 10.4848C8.5647 10.5815 8.29944 10.6052 8.04422 10.553C7.789 10.5007 7.55541 10.3748 7.37327 10.1914C7.19112 10.0079 7.06868 9.77528 7.02158 9.52309C6.97449 9.2709 7.00486 9.01063 7.10884 8.77549C7.21282 8.54036 7.38568 8.34104 7.60535 8.20298C7.82502 8.06491 8.08154 7.99437 8.34216 8.00035C8.68468 8.00821 9.01047 8.14759 9.24985 8.38867C9.48924 8.62975 9.62321 8.9534 9.62312 9.29038Z" fill="#0066FF"/>
<path d="M9.62312 13.496C9.62312 13.7511 9.5462 14.0005 9.40208 14.2127C9.25796 14.4248 9.05313 14.5902 8.81347 14.6878C8.57381 14.7854 8.3101 14.811 8.05569 14.7612C7.80127 14.7114 7.56757 14.5886 7.38415 14.4082C7.20072 14.2277 7.07581 13.9979 7.0252 13.7476C6.9746 13.4974 7.00057 13.238 7.09984 13.0023C7.19911 12.7666 7.36721 12.5651 7.5829 12.4233C7.79858 12.2816 8.05216 12.2059 8.31156 12.2059C8.65941 12.2059 8.99301 12.3418 9.23897 12.5838C9.48494 12.8257 9.62312 13.1538 9.62312 13.496Z" fill="#0066FF"/>
<path d="M9.62312 17.7099C9.62312 17.9651 9.5462 18.2145 9.40208 18.4267C9.25796 18.6388 9.05313 18.8041 8.81347 18.9018C8.57381 18.9994 8.3101 19.025 8.05569 18.9752C7.80127 18.9254 7.56757 18.8026 7.38415 18.6221C7.20072 18.4417 7.07581 18.2119 7.0252 17.9616C6.9746 17.7114 7.00057 17.452 7.09984 17.2163C7.19911 16.9806 7.36721 16.7791 7.5829 16.6373C7.79858 16.4956 8.05216 16.4199 8.31156 16.4199C8.65941 16.4199 8.99301 16.5558 9.23897 16.7978C9.48494 17.0397 9.62312 17.3678 9.62312 17.7099Z" fill="#0066FF"/>
</svg>
