<svg width="14" height="12" viewBox="0 0 14 12" fill="none" xmlns="http://www.w3.org/2000/svg">
<path fill-rule="evenodd" clip-rule="evenodd" d="M2.98438 10.7142C3.93003 11.3632 5.05105 11.7085 6.19797 11.7042C6.58155 11.6959 6.96325 11.6486 7.33722 11.5628C8.07046 11.4302 8.77019 11.1535 9.39593 10.7489C10.0217 10.3443 10.561 9.81987 10.9829 9.20567C11.5798 8.32663 11.9174 7.29743 11.9572 6.23565C11.9615 6.158 11.9501 6.08016 11.9237 6.00699C11.8974 5.93382 11.8567 5.86675 11.8039 5.80961C11.7512 5.75246 11.6875 5.70647 11.6166 5.67437C11.5458 5.64227 11.4693 5.62476 11.3915 5.62277C11.2358 5.61846 11.0845 5.67514 10.9699 5.78083C10.8554 5.88653 10.7868 6.03284 10.7787 6.18846C10.7452 7.03271 10.4727 7.85011 9.99294 8.5456C9.66144 9.03705 9.23603 9.45808 8.74114 9.78441C8.24624 10.1107 7.69167 10.3359 7.10938 10.447C6.52544 10.56 5.92492 10.5564 5.34238 10.4364C4.75985 10.3164 4.2068 10.0824 3.71509 9.74777C3.2228 9.41538 2.80131 8.98877 2.47494 8.49247C2.14857 7.99617 1.92381 7.44009 1.81367 6.85639C1.70023 6.27328 1.70433 5.67331 1.82576 5.0918C1.94718 4.51029 2.18347 3.95891 2.52079 3.46992C2.85228 2.97847 3.27774 2.55745 3.77263 2.23112C4.26752 1.90478 4.8221 1.67966 5.40439 1.56855C5.98831 1.4551 6.58888 1.45831 7.17148 1.57834C7.75408 1.69836 8.30716 1.93274 8.79868 2.26775C8.92534 2.34544 9.07663 2.37247 9.22233 2.34333C9.36802 2.31419 9.49736 2.23107 9.5844 2.11065C9.66208 1.984 9.68902 1.8326 9.65988 1.68691C9.63074 1.54121 9.54767 1.41197 9.42725 1.32494C8.80912 0.901361 8.11268 0.605347 7.37875 0.454243C6.64481 0.303138 5.88813 0.299889 5.15296 0.444843C4.41972 0.577501 3.72004 0.85418 3.09429 1.25876C2.46855 1.66333 1.92913 2.18779 1.50723 2.80199C1.08744 3.42044 0.793673 4.11555 0.642677 4.84761C0.491682 5.57967 0.486423 6.33447 0.627235 7.06855C0.760307 7.80165 1.03709 8.50114 1.44163 9.12683C1.84617 9.75252 2.37048 10.292 2.98438 10.7142ZM5.99508 8.51117C6.06679 8.54093 6.14391 8.55531 6.22153 8.55356C6.30465 8.55417 6.38695 8.53699 6.46285 8.50311C6.53875 8.46922 6.60649 8.41942 6.66153 8.35713L13.3401 1.67856C13.4505 1.56807 13.5125 1.41827 13.5125 1.26211C13.5125 1.10595 13.4505 0.956147 13.3401 0.845655C13.2296 0.735301 13.0799 0.673397 12.9237 0.673397C12.7675 0.673397 12.6177 0.735301 12.5072 0.845655L6.22153 7.13137L4.28084 5.19068C4.17035 5.08032 4.02055 5.01842 3.86439 5.01842C3.70823 5.01842 3.55848 5.08032 3.44798 5.19068C3.39239 5.24485 3.34819 5.30964 3.31802 5.38116C3.28785 5.45268 3.27232 5.52951 3.27232 5.60713C3.27232 5.68475 3.28785 5.76158 3.31802 5.8331C3.34819 5.90462 3.39239 5.96941 3.44798 6.02358L5.80513 8.38072C5.85869 8.43693 5.92338 8.4814 5.99508 8.51117Z" fill="white"/>
</svg>
