<svg width="22" height="22" viewBox="0 0 22 22" fill="none" xmlns="http://www.w3.org/2000/svg">
<path fill-rule="evenodd" clip-rule="evenodd" d="M14.1427 10.2143H11.7856V7.85713C11.7856 7.64874 11.7028 7.44889 11.5554 7.30154C11.4081 7.15419 11.2082 7.07141 10.9999 7.07141C10.7915 7.07141 10.5916 7.15419 10.4443 7.30154C10.2969 7.44889 10.2141 7.64874 10.2141 7.85713V10.2143H7.857C7.64862 10.2143 7.44877 10.297 7.30142 10.4444C7.15407 10.5917 7.07129 10.7916 7.07129 11C7.07129 11.2084 7.15407 11.4082 7.30142 11.5556C7.44877 11.7029 7.64862 11.7857 7.857 11.7857H10.2141V14.1428C10.2141 14.3512 10.2969 14.5511 10.4443 14.6984C10.5916 14.8458 10.7915 14.9286 10.9999 14.9286C11.2082 14.9286 11.4081 14.8458 11.5554 14.6984C11.7028 14.5511 11.7856 14.3512 11.7856 14.1428V11.7857H14.1427C14.3511 11.7857 14.551 11.7029 14.6983 11.5556C14.8457 11.4082 14.9284 11.2084 14.9284 11C14.9284 10.7916 14.8457 10.5917 14.6983 10.4444C14.551 10.297 14.3511 10.2143 14.1427 10.2143Z" fill="white"/>
</svg>
