<svg width="28" height="28" viewBox="0 0 28 28" fill="none" xmlns="http://www.w3.org/2000/svg">
<path d="M17.8714 9.28571H6.85714C6.51429 9.28571 6.21429 8.98571 6.21429 8.64286C6.21429 8.3 6.51429 8 6.85714 8H17.8714C18.2143 8 18.5143 8.3 18.5143 8.64286C18.5143 8.98571 18.2143 9.28571 17.8714 9.28571Z" fill="#0066FF"/>
<path d="M17.8714 20H6.85714C6.51429 20 6.21429 19.7 6.21429 19.3571C6.21429 19.0143 6.51429 18.7143 6.85714 18.7143H17.8714C18.2143 18.7143 18.5143 19.0143 18.5143 19.3571C18.5143 19.7 18.2143 20 17.8714 20Z" fill="#0066FF"/>
<path d="M18.2143 14.6429H11.9143C11.5714 14.6429 11.2714 14.3429 11.2714 14C11.2714 13.6571 11.5714 13.3571 11.9143 13.3571H18.2143C18.5571 13.3571 18.8571 13.6571 18.8571 14C18.8571 14.3429 18.5571 14.6429 18.2143 14.6429Z" fill="#0066FF"/>
<path d="M9.6 14.8571C10.0734 14.8571 10.4571 14.4734 10.4571 14C10.4571 13.5266 10.0734 13.1429 9.6 13.1429C9.12661 13.1429 8.74286 13.5266 8.74286 14C8.74286 14.4734 9.12661 14.8571 9.6 14.8571Z" fill="#0066FF"/>
<path d="M19.4571 12.4571C19.8429 12.4571 20.1429 12.7571 20.1429 13.1429V14.8143C20.1429 15.2 19.8429 15.5 19.4571 15.5H7.97143C7.58571 15.5 7.28571 15.2 7.28571 14.8143V13.1429C7.28571 12.7571 7.58571 12.4571 7.97143 12.4571H19.4571ZM19.4571 11.1714H7.97143C6.9 11.1714 6 12.0714 6 13.1429V14.8143C6 15.8857 6.9 16.7857 7.97143 16.7857H19.4571C20.5286 16.7857 21.4286 15.8857 21.4286 14.8143V13.1429C21.4286 12.0714 20.5286 11.1714 19.4571 11.1714Z" fill="#0066FF"/>
</svg>
