<svg width="28" height="28" viewBox="0 0 28 28" fill="none" xmlns="http://www.w3.org/2000/svg">
<path fill-rule="evenodd" clip-rule="evenodd" d="M21.3009 13.2744C21.7032 13.2744 22.028 12.9447 22.028 12.5472C22.028 12.1448 21.7032 11.82 21.3009 11.82H15.2412V8.48478L15.9392 9.18285C16.0798 9.32344 16.2689 9.39615 16.4531 9.39615C16.6373 9.39615 16.8264 9.32344 16.967 9.18285C17.253 8.89683 17.253 8.4363 16.967 8.15028L15.0279 6.21118C14.7467 5.93001 14.2862 5.93001 14.0001 6.21118L12.061 8.15028C11.775 8.4363 11.775 8.89683 12.061 9.18285C12.3471 9.46402 12.8076 9.46402 13.0888 9.18285L13.7868 8.48478V11.82H7.72716C7.3248 11.82 7 12.1497 7 12.5472C7 12.9447 7.3248 13.2744 7.72716 13.2744H21.3009ZM21.3009 16.183C21.7032 16.183 22.028 15.8582 22.028 15.4558C22.028 15.0535 21.7032 14.7287 21.3009 14.7287H7.72716C7.3248 14.7287 7 15.0535 7 15.4558C7 15.8582 7.3248 16.183 7.72716 16.183H13.7868V19.5182L13.0888 18.8202C12.8076 18.5342 12.3471 18.5342 12.061 18.8202C11.775 19.1062 11.775 19.5667 12.061 19.8479L14.0001 21.787C14.1407 21.9276 14.3298 22.0003 14.514 22.0003C14.6982 22.0003 14.8873 21.9276 15.0279 21.787L16.967 19.8479C17.253 19.5667 17.253 19.1062 16.967 18.8202C16.6858 18.5342 16.2253 18.5342 15.9392 18.8202L15.2412 19.5182V16.183H21.3009Z" fill="#4C5866"/>
</svg>
