<svg width="22" height="22" viewBox="0 0 22 22" fill="none" xmlns="http://www.w3.org/2000/svg">
<path d="M15.2013 17.1113H6.79811C6.11751 17.1101 5.46513 16.8515 4.98388 16.392C4.50262 15.9325 4.2317 15.3097 4.23047 14.6599V11.0942C4.23047 10.9169 4.30425 10.7468 4.43557 10.6215C4.5669 10.4961 4.74501 10.4256 4.93073 10.4256C5.11646 10.4256 5.29457 10.4961 5.4259 10.6215C5.55722 10.7468 5.631 10.9169 5.631 11.0942V14.6599C5.631 14.8062 5.66119 14.9511 5.71984 15.0863C5.77849 15.2215 5.86446 15.3443 5.97284 15.4478C6.08121 15.5513 6.20987 15.6334 6.35147 15.6894C6.49307 15.7454 6.64484 15.7742 6.79811 15.7742H15.2013C15.3546 15.7742 15.5063 15.7454 15.6479 15.6894C15.7895 15.6334 15.9182 15.5513 16.0266 15.4478C16.1349 15.3443 16.2209 15.2215 16.2796 15.0863C16.3382 14.9511 16.3684 14.8062 16.3684 14.6599V11.0942C16.3684 10.9169 16.4422 10.7468 16.5735 10.6215C16.7048 10.4961 16.8829 10.4256 17.0687 10.4256C17.2544 10.4256 17.4325 10.4961 17.5638 10.6215C17.6952 10.7468 17.7689 10.9169 17.7689 11.0942V14.6599C17.7677 15.3097 17.4968 15.9325 17.0155 16.392C16.5343 16.8515 15.8819 17.1101 15.2013 17.1113Z" fill="white"/>
<path d="M13.829 11.121L11.4947 13.3495C11.4321 13.4124 11.3555 13.4611 11.2707 13.4922C11.2412 13.5058 11.2097 13.5148 11.1773 13.5189C11.12 13.5368 11.0601 13.5458 10.9999 13.5456C10.8144 13.5445 10.6368 13.4741 10.505 13.3495L8.17081 11.121C8.0408 10.9951 7.96792 10.8253 7.96792 10.6485C7.96792 10.4717 8.0408 10.302 8.17081 10.1761C8.23551 10.1135 8.31257 10.0639 8.39751 10.03C8.48246 9.99614 8.5736 9.97869 8.66566 9.97869C8.75773 9.97869 8.84887 9.99614 8.93382 10.03C9.01876 10.0639 9.09582 10.1135 9.16052 10.1761L10.2996 11.2636V5.74571C10.2996 5.5684 10.3734 5.39835 10.5047 5.27297C10.636 5.14759 10.8142 5.07715 10.9999 5.07715C11.1856 5.07715 11.3637 5.14759 11.495 5.27297C11.6264 5.39835 11.7001 5.5684 11.7001 5.74571V11.2636L12.8392 10.1761C12.972 10.058 13.1476 9.99369 13.329 9.99675C13.5104 9.9998 13.6835 10.07 13.8118 10.1925C13.9401 10.315 14.0136 10.4802 14.0168 10.6534C14.02 10.8266 13.9526 10.9942 13.829 11.121Z" fill="white"/>
</svg>
