<svg width="23" height="22" viewBox="0 0 23 22" fill="none" xmlns="http://www.w3.org/2000/svg">
<path d="M14.3383 17.2853H7.44428C6.21553 17.2853 5.21387 16.2836 5.21387 15.0549V8.16088C5.21387 6.93213 6.21553 5.93047 7.44428 5.93047H11.0941C11.4306 5.93047 11.7023 6.20217 11.7023 6.53876C11.7023 6.87535 11.4306 7.14706 11.0941 7.14706H7.44428C6.88465 7.14706 6.43046 7.60125 6.43046 8.16088V15.0549C6.43046 15.6145 6.88465 16.0687 7.44428 16.0687H14.3383C14.8979 16.0687 15.3521 15.6145 15.3521 15.0549V11.4051C15.3521 11.0685 15.6238 10.7968 15.9604 10.7968C16.297 10.7968 16.5687 11.0685 16.5687 11.4051V15.0549C16.5687 16.2836 15.567 17.2853 14.3383 17.2853Z" fill="white"/>
<path d="M17.7854 5.32216V8.97193C17.7854 9.30852 17.5137 9.58023 17.1771 9.58023C16.8405 9.58023 16.5688 9.30852 16.5688 8.97193V6.79018L11.1185 12.2405C11.0009 12.3581 10.8427 12.4189 10.6886 12.4189C10.5345 12.4189 10.3764 12.3581 10.2588 12.2405C10.0195 12.0053 10.0195 11.616 10.2588 11.3808L15.7091 5.93046H13.5273C13.1907 5.93046 12.919 5.65875 12.919 5.32216C12.919 4.98557 13.1907 4.71387 13.5273 4.71387H17.1771C17.5137 4.71387 17.7854 4.98557 17.7854 5.32216Z" fill="white"/>
</svg>
