<svg width="22" height="22" viewBox="0 0 22 22" fill="none" xmlns="http://www.w3.org/2000/svg">
<path d="M14.902 16.6457H7.09908C6.46709 16.6444 5.86132 16.3742 5.41444 15.8942C4.96755 15.4143 4.71599 14.7636 4.71484 14.0848V10.3599C4.71484 10.1747 4.78335 9.99706 4.9053 9.86608C5.02724 9.73511 5.19263 9.66152 5.36509 9.66152C5.53755 9.66152 5.70294 9.73511 5.82488 9.86608C5.94683 9.99706 6.01534 10.1747 6.01534 10.3599V14.0848C6.01534 14.2377 6.04337 14.389 6.09783 14.5303C6.15229 14.6715 6.23212 14.7998 6.33276 14.9079C6.43339 15.016 6.55286 15.1017 6.68435 15.1602C6.81584 15.2187 6.95676 15.2488 7.09908 15.2488H14.902C15.0444 15.2488 15.1853 15.2187 15.3168 15.1602C15.4483 15.1017 15.5677 15.016 15.6684 14.9079C15.769 14.7998 15.8488 14.6715 15.9033 14.5303C15.9577 14.389 15.9858 14.2377 15.9858 14.0848V10.3599C15.9858 10.1747 16.0543 9.99706 16.1762 9.86608C16.2982 9.73511 16.4636 9.66152 16.636 9.66152C16.8085 9.66152 16.9739 9.73511 17.0958 9.86608C17.2178 9.99706 17.2863 10.1747 17.2863 10.3599V14.0848C17.2851 14.7636 17.0336 15.4143 16.5867 15.8942C16.1398 16.3742 15.534 16.6444 14.902 16.6457Z" fill="white"/>
<path d="M13.6273 7.59423C13.5672 7.6593 13.4956 7.71092 13.4167 7.74609C13.3378 7.78125 13.2532 7.79927 13.1678 7.79909C12.9957 7.79743 12.8309 7.72397 12.7083 7.59423L11.6506 6.45814V12.2224C11.6506 12.4076 11.5821 12.5852 11.4601 12.7162C11.3382 12.8472 11.1728 12.9208 11.0003 12.9208C10.8279 12.9208 10.6625 12.8472 10.5406 12.7162C10.4186 12.5852 10.3501 12.4076 10.3501 12.2224V6.45814L9.29236 7.59423C9.23229 7.65955 9.16073 7.71141 9.08186 7.7468C9.00298 7.7822 8.91834 7.80043 8.83286 7.80043C8.74737 7.80043 8.66274 7.7822 8.58386 7.7468C8.50498 7.71141 8.43343 7.65955 8.37335 7.59423C8.25263 7.46268 8.18495 7.28539 8.18495 7.10068C8.18495 6.91597 8.25263 6.73868 8.37335 6.60714L10.5408 4.27909C10.5997 4.21435 10.6706 4.16359 10.7489 4.1301C10.8282 4.09283 10.9138 4.0738 11.0003 4.07423C11.0563 4.07404 11.1119 4.08347 11.1651 4.10216C11.1952 4.10647 11.2244 4.1159 11.2518 4.1301C11.3306 4.16254 11.4017 4.21344 11.4599 4.27909L13.6273 6.60714C13.6882 6.67166 13.7364 6.74852 13.7694 6.83324C13.8024 6.91796 13.8193 7.00886 13.8193 7.10068C13.8193 7.1925 13.8024 7.2834 13.7694 7.36812C13.7364 7.45285 13.6882 7.5297 13.6273 7.59423Z" fill="white"/>
<path d="M10.5408 4.27909C10.5997 4.21435 10.6706 4.16359 10.7489 4.1301C10.6712 4.16473 10.6005 4.21534 10.5408 4.27909Z" fill="white"/>
<path d="M11.2518 4.1301C11.3306 4.16254 11.4017 4.21344 11.4599 4.27909C11.4025 4.21241 11.3311 4.16134 11.2518 4.1301Z" fill="white"/>
</svg>
