<svg width="18" height="14" viewBox="0 0 18 14" fill="none" xmlns="http://www.w3.org/2000/svg">
<path d="M15.2345 5.21455C14.9891 3.50182 13.5109 2.18182 11.7273 2.18182C11.4218 2.18182 11.1218 2.22545 10.8218 2.30727C10.0036 0.9 8.48182 0 6.81818 0C4.26 0 2.18182 2.07818 2.18182 4.63636C2.18182 4.77273 2.18182 4.91455 2.20364 5.05636C0.845455 5.89091 0 7.37455 0 9C0 11.5582 2.07818 13.6364 4.63636 13.6364H13.3636C13.3964 13.6364 13.4345 13.6364 13.4673 13.6309C13.5218 13.6364 13.5764 13.6364 13.6364 13.6364C16.0418 13.6364 18 11.6782 18 9.27273C18 7.45091 16.8927 5.86364 15.2345 5.21455ZM13.6364 12C13.5982 12 13.56 11.9945 13.5218 11.9945L13.4127 11.9836H13.3691C13.3145 11.9836 13.26 11.9891 13.2109 12H4.63636C2.98364 12 1.63636 10.6527 1.63636 9C1.63636 7.80545 2.34 6.73091 3.43091 6.25091C3.79636 6.09273 3.99273 5.7 3.9 5.31818C3.84545 5.08364 3.81818 4.85455 3.81818 4.63636C3.81818 2.98364 5.16545 1.63636 6.81818 1.63636C8.07818 1.63636 9.21818 2.43818 9.64364 3.63273C9.72546 3.85636 9.9 4.03636 10.1291 4.12364C10.3527 4.20545 10.6036 4.18364 10.8164 4.06909C11.1055 3.9 11.4164 3.81818 11.7273 3.81818C12.7691 3.81818 13.6145 4.65273 13.6364 5.68909C13.6364 5.73273 13.6255 5.79273 13.6255 5.82545C13.6255 6.20727 13.8873 6.53455 14.2582 6.62182C15.4964 6.91091 16.3636 8.00182 16.3636 9.27273C16.3636 10.7782 15.1418 12 13.6364 12Z" fill="#4C5866"/>
<path d="M11.2903 7.85447C11.1321 8.0672 10.8866 8.18174 10.6357 8.18174C10.4666 8.18174 10.2921 8.1272 10.1448 8.01811L9.27209 7.36356V10.0908C9.27209 10.5436 8.90664 10.909 8.45391 10.909C8.00118 10.909 7.63573 10.5436 7.63573 10.0908V7.36356L6.763 8.01811C6.403 8.29083 5.89027 8.21447 5.61755 7.85447C5.34482 7.49447 5.42118 6.98174 5.78118 6.70902L7.963 5.07265C7.963 5.07265 7.97937 5.06174 7.99027 5.05629C7.99573 5.04538 8.00664 5.03992 8.01755 5.03992C8.05027 5.01265 8.083 4.99629 8.11573 4.98538C8.32846 4.8872 8.57937 4.8872 8.79209 4.98538C8.82482 4.99629 8.85755 5.01265 8.89027 5.03992C8.90118 5.03992 8.91209 5.04538 8.91755 5.05629C8.92846 5.06174 8.93391 5.0672 8.94482 5.07265L11.1266 6.70902C11.4866 6.98174 11.563 7.49447 11.2903 7.85447Z" fill="#4C5866"/>
</svg>
