<svg width="22" height="22" viewBox="0 0 22 22" fill="none" xmlns="http://www.w3.org/2000/svg">
<path d="M7.66357 6.02854C7.82797 5.9617 8.01097 5.96167 8.17536 6.02854C8.25293 6.05912 8.32294 6.1075 8.38023 6.16938L10.4688 8.30906C10.5273 8.37163 10.5732 8.44543 10.6039 8.52629C10.6345 8.60727 10.6495 8.69405 10.6476 8.78092C10.6456 8.86783 10.6266 8.95372 10.5924 9.03317C10.558 9.11269 10.5088 9.18503 10.4473 9.24483C10.3256 9.36814 10.1616 9.43767 9.99079 9.43819C9.82238 9.43735 9.66061 9.36776 9.54192 9.24483L8.55134 8.22551V15.4212C8.55134 15.5959 8.48414 15.7639 8.36412 15.8875C8.244 16.0111 8.08052 16.0808 7.91064 16.0808C7.74085 16.0808 7.57801 16.011 7.45794 15.8875C7.33782 15.7639 7.27072 15.596 7.27072 15.4212V8.22551L6.27553 9.24483C6.15491 9.36713 5.99218 9.43578 5.82282 9.4358C5.65348 9.4358 5.49075 9.36709 5.37012 9.24483C5.25298 9.11896 5.18756 8.9512 5.1875 8.77695C5.1875 8.60266 5.253 8.43498 5.37012 8.30906L7.45794 6.16938C7.51526 6.10743 7.58595 6.05915 7.66357 6.02854Z" fill="white"/>
<path d="M14.2432 5.86621C14.413 5.86621 14.5757 5.936 14.6959 6.05957C14.816 6.18312 14.8838 6.35034 14.8839 6.52507V13.7215L15.8614 12.7022C15.9814 12.5782 16.1447 12.5077 16.3149 12.5073C16.485 12.5069 16.6485 12.5764 16.7691 12.6998C16.8897 12.8233 16.9574 12.9911 16.9579 13.1661C16.9583 13.3411 16.8913 13.5091 16.7714 13.6332H16.7845L14.6959 15.7777C14.6394 15.8405 14.5691 15.8883 14.491 15.9177C14.4653 15.9304 14.4378 15.9392 14.4097 15.944C14.3559 15.9616 14.2996 15.9712 14.2432 15.971C14.1599 15.9708 14.0775 15.9532 14.0007 15.9201C13.9238 15.887 13.8537 15.8386 13.7951 15.7777L11.7111 13.6332C11.6517 13.5718 11.6042 13.4992 11.5722 13.4192C11.5401 13.339 11.5244 13.2528 11.5246 13.1661C11.525 12.9911 11.5928 12.8233 11.7134 12.6998C11.834 12.5764 11.9975 12.5069 12.1676 12.5073C12.2518 12.5075 12.3355 12.5249 12.4132 12.5582C12.4908 12.5915 12.561 12.6409 12.6203 12.7022L13.6025 13.7215V6.52507C13.6025 6.35041 13.6705 6.18311 13.7905 6.05957C13.9105 5.93603 14.0733 5.86625 14.2432 5.86621Z" fill="white"/>
</svg>
