<svg width="28" height="28" viewBox="0 0 28 28" fill="none" xmlns="http://www.w3.org/2000/svg">
<path d="M10.9655 13.6092C9.4023 13.6092 8.16092 12.3678 8.16092 10.8046C8.16092 9.24138 9.4023 8 10.9655 8C12.5287 8 13.7701 9.24138 13.7701 10.8046C13.7701 12.3678 12.5287 13.6092 10.9655 13.6092ZM10.9655 9.37931C10.1839 9.37931 9.54023 10.023 9.54023 10.8046C9.54023 11.5862 10.1839 12.2299 10.9655 12.2299C11.7471 12.2299 12.3908 11.5862 12.3908 10.8046C12.3908 10.023 11.7471 9.37931 10.9655 9.37931Z" fill="#0066FF"/>
<path d="M10.9655 20C10.4598 20 6 19.908 6 17.5172C6 15.1264 8.06897 13.977 10.9655 13.977C13.8621 13.977 15.931 16.092 15.931 17.5172C15.931 19.908 11.5172 20 10.9655 20ZM10.9655 15.4023C8.8046 15.4023 7.37931 16.9195 7.37931 17.5632C7.37931 18.2069 9.08046 18.6667 10.9655 18.6667C12.8506 18.6667 14.5517 18.1609 14.5517 17.5632C14.5517 16.9655 13.1264 15.4023 10.9655 15.4023Z" fill="#0066FF"/>
<path d="M20.6667 13.4253L19.6552 14.4368C19.6552 14.4368 19.6092 14.4828 19.5632 14.5287C19.1035 14.9425 18.4598 15.2184 17.8161 15.2184C17.1724 15.2184 16.4828 14.9425 15.977 14.4368C15.4713 13.931 15.1954 13.2874 15.1954 12.5977C15.1954 11.908 15.4253 11.3103 15.8851 10.8506C15.8851 10.8506 15.931 10.8046 15.977 10.7586L16.9425 9.74713L17.908 10.7126L16.8966 11.6782C16.6667 11.908 16.5287 12.2299 16.5287 12.5517C16.5287 12.8736 16.6667 13.1954 16.8966 13.4253C17.3563 13.8851 18.1839 13.8851 18.5977 13.4253L19.6092 12.4598L20.5747 13.4253H20.6667Z" fill="#0066FF"/>
<path d="M19.7012 14.3908L19.6092 14.4828C19.6092 14.4828 19.6552 14.4368 19.7012 14.3908Z" fill="#0066FF"/>
<path d="M16.023 10.7126C16.023 10.7126 15.977 10.7586 15.931 10.8046L16.023 10.7126Z" fill="#0066FF"/>
<path d="M21.1146 11.0192L20.2043 11.9295L21.1796 12.9048L22.0899 11.9945L21.1146 11.0192Z" fill="#0066FF"/>
<path d="M18.4143 8.31999L17.504 9.23029L18.4793 10.2056L19.3896 9.29531L18.4143 8.31999Z" fill="#0066FF"/>
</svg>
