<svg width="40" height="40" viewBox="0 0 40 40" fill="none" xmlns="http://www.w3.org/2000/svg">
<path d="M0 20C0 8.95431 8.95431 0 20 0C31.0457 0 40 8.95431 40 20C40 31.0457 31.0457 40 20 40C8.95431 40 0 31.0457 0 20Z" fill="#E5EFFF"/>
<path d="M13.79 30.051H10.3255C9.77116 30.051 9.28613 29.566 9.28613 29.0117V25.5472C9.28613 25.2701 9.42471 24.9929 9.56329 24.785L15.245 19.1033C14.9679 18.2718 14.8293 17.4403 14.8293 16.5396C14.8293 12.1051 18.4323 8.57129 22.7976 8.57129C23.9062 8.57129 25.0148 8.77916 26.0542 9.26418C30.073 11.0657 31.8052 15.7774 30.0037 19.7962C29.1029 21.7363 27.5786 23.1914 25.5692 23.9536C23.8369 24.6465 21.8968 24.6464 20.1646 24.0228L18.6402 25.5472C18.4323 25.7551 18.1552 25.8244 17.878 25.8244H16.908V26.8637C16.908 27.418 16.423 27.9031 15.8686 27.9031H14.8293V28.9424C14.8293 29.566 14.3443 30.051 13.79 30.051ZM11.3648 27.9723H12.7506V26.933C12.7506 26.3787 13.2356 25.8937 13.79 25.8937H14.8293V24.8543C14.8293 24.3 15.3143 23.815 15.8686 23.815H17.5316L19.2638 22.0827C19.541 21.8056 20.026 21.667 20.4417 21.8749C21.8968 22.4985 23.4905 22.5678 24.9456 22.0134C26.4006 21.4591 27.5786 20.3505 28.2022 18.9647C28.8258 17.5096 28.8951 15.916 28.3407 14.4609C27.7864 13.0058 26.6778 11.8279 25.292 11.2043C24.4605 10.8578 23.6291 10.65 22.7976 10.65C19.541 10.65 16.908 13.283 16.908 16.5396C16.908 17.3711 17.1158 18.2025 17.4623 18.9647C17.6702 19.3804 17.5316 19.7962 17.2544 20.1426L11.3648 25.963V27.9723Z" fill="#0066FF"/>
<path d="M23.1184 19.0931C21.3862 19.0931 20.0004 17.7073 20.0004 15.975C20.0004 14.2428 21.3862 12.857 23.1184 12.857C24.8507 12.857 26.2365 14.2428 26.2365 15.975C26.2365 17.7073 24.8507 19.0931 23.1184 19.0931ZM23.1184 14.9357C22.5641 14.9357 22.0791 15.4207 22.0791 15.975C22.0791 16.5293 22.5641 17.0144 23.1184 17.0144C23.6728 17.0144 24.1578 16.5293 24.1578 15.975C24.1578 15.4207 23.6728 14.9357 23.1184 14.9357Z" fill="#0066FF"/>
</svg>
