<svg width="28" height="28" viewBox="0 0 28 28" fill="none" xmlns="http://www.w3.org/2000/svg">
<path fill-rule="evenodd" clip-rule="evenodd" d="M6.99023 21.75H9.49023C9.58912 21.75 9.68703 21.7303 9.77814 21.6918C9.86925 21.6534 9.95171 21.5971 10.0207 21.5262C10.0897 21.4554 10.1438 21.3714 10.1797 21.2793C10.2157 21.1872 10.233 21.0888 10.2303 20.99V20.24H10.9803C11.0791 20.2413 11.1773 20.2228 11.2689 20.1856C11.3605 20.1484 11.4437 20.0932 11.5136 20.0233C11.5835 19.9534 11.6387 19.8702 11.6759 19.7786C11.7131 19.687 11.7316 19.5889 11.7303 19.49V18.74H12.4803C12.6791 18.7398 12.8697 18.6607 13.0103 18.52L14.1102 17.43C15.38 17.8708 16.7646 17.8496 18.0203 17.37C18.7275 17.1077 19.3754 16.7073 19.9265 16.1923C20.4776 15.6773 20.9208 15.0578 21.2303 14.37C21.5415 13.6826 21.714 12.9406 21.7382 12.1865C21.7623 11.4323 21.6375 10.6808 21.371 9.97491C21.1044 9.26904 20.7013 8.62269 20.1847 8.07275C19.6681 7.52282 19.0481 7.08007 18.3602 6.76996C17.6165 6.42914 16.8083 6.25186 15.9902 6.25C14.4678 6.25263 13.0083 6.85787 11.9308 7.93347C10.8534 9.00907 10.2455 10.4675 10.2402 11.99C10.2408 12.6334 10.3489 13.2723 10.5602 13.88L6.46027 17.97C6.31957 18.1105 6.24041 18.3012 6.24023 18.5V21C6.24023 21.1989 6.31925 21.3897 6.4599 21.5303C6.60055 21.671 6.79132 21.75 6.99023 21.75ZM8.74023 20.25H7.74023L7.77026 18.81L12.0002 14.59C12.1077 14.4818 12.1796 14.3435 12.2064 14.1934C12.2332 14.0434 12.2136 13.8887 12.1503 13.75C11.9005 13.1968 11.771 12.5969 11.7703 11.99C11.7755 10.8654 12.2253 9.78844 13.0215 8.99414C13.8177 8.19984 14.8956 7.75263 16.0203 7.75C16.6239 7.75185 17.2203 7.88135 17.7703 8.13C18.2816 8.35845 18.7422 8.68661 19.1251 9.09528C19.508 9.50395 19.8055 9.98492 20.0002 10.51C20.1983 11.032 20.2906 11.5881 20.2717 12.1461C20.2528 12.704 20.1232 13.2526 19.8903 13.76C19.6601 14.2707 19.33 14.7303 18.9196 15.1115C18.5091 15.4928 18.0265 15.788 17.5002 15.98C16.9783 16.178 16.4222 16.2703 15.8642 16.2515C15.3062 16.2326 14.7576 16.1029 14.2502 15.87C14.1101 15.8107 13.9555 15.7942 13.806 15.8227C13.6565 15.8512 13.5188 15.9233 13.4103 16.03L12.1802 17.25H10.9902C10.7921 17.2526 10.6029 17.3324 10.4628 17.4725C10.3227 17.6126 10.2428 17.8019 10.2402 18V18.75H9.49023C9.29213 18.7526 9.10286 18.8324 8.96277 18.9725C8.82267 19.1126 8.74282 19.3019 8.74023 19.5V20.25ZM14.8993 13.091C15.3212 13.513 15.8935 13.75 16.4902 13.75C17.087 13.75 17.6593 13.513 18.0812 13.091C18.5032 12.669 18.7402 12.0967 18.7402 11.5C18.7402 10.9033 18.5032 10.331 18.0812 9.909C17.6593 9.48704 17.087 9.25 16.4902 9.25C15.8935 9.25 15.3212 9.48704 14.8993 9.909C14.4773 10.331 14.2402 10.9033 14.2402 11.5C14.2402 12.0967 14.4773 12.669 14.8993 13.091ZM15.9628 10.9725C16.1029 10.8324 16.2921 10.7526 16.4902 10.75C16.6891 10.75 16.8799 10.829 17.0206 10.9697C17.1612 11.1103 17.2402 11.3011 17.2402 11.5C17.2416 11.5989 17.2231 11.697 17.1859 11.7886C17.1487 11.8802 17.0935 11.9634 17.0236 12.0333C16.9536 12.1032 16.8705 12.1584 16.7789 12.1956C16.6873 12.2328 16.5891 12.2513 16.4902 12.25C16.2913 12.25 16.1006 12.171 15.9599 12.0303C15.8192 11.8897 15.7402 11.6989 15.7402 11.5C15.7428 11.3019 15.8227 11.1126 15.9628 10.9725Z" fill="#0066FF"/>
</svg>
