<svg width="41" height="40" viewBox="0 0 41 40" fill="none" xmlns="http://www.w3.org/2000/svg">
<path d="M0.5 20C0.5 8.95431 9.45431 0 20.5 0C31.5457 0 40.5 8.95431 40.5 20C40.5 31.0457 31.5457 40 20.5 40C9.45431 40 0.5 31.0457 0.5 20Z" fill="#E5EFFF"/>
<path d="M29.4115 14.4025H17.1578C16.862 14.3812 16.5853 14.2507 16.3834 14.037C16.1814 13.8233 16.0692 13.5424 16.0692 13.2507C16.0692 12.959 16.1814 12.678 16.3834 12.4644C16.5853 12.2507 16.862 12.1201 17.1578 12.0989H29.4115C29.7073 12.1201 29.9839 12.2507 30.1859 12.4644C30.3878 12.678 30.5001 12.959 30.5001 13.2507C30.5001 13.5424 30.3878 13.8233 30.1859 14.037C29.9839 14.2507 29.7073 14.3812 29.4115 14.4025Z" fill="#0066FF"/>
<path d="M29.4115 20.4288H17.1578C16.862 20.4075 16.5853 20.2769 16.3834 20.0633C16.1814 19.8496 16.0692 19.5687 16.0692 19.277C16.0692 18.9852 16.1814 18.7043 16.3834 18.4906C16.5853 18.277 16.862 18.1464 17.1578 18.1251H29.4115C29.7073 18.1464 29.9839 18.277 30.1859 18.4906C30.3878 18.7043 30.5001 18.9852 30.5001 19.277C30.5001 19.5687 30.3878 19.8496 30.1859 20.0633C29.9839 20.2769 29.7073 20.4075 29.4115 20.4288Z" fill="#0066FF"/>
<path d="M29.4115 26.455H17.1578C16.862 26.4338 16.5853 26.3032 16.3834 26.0895C16.1814 25.8759 16.0692 25.5949 16.0692 25.3032C16.0692 25.0115 16.1814 24.7306 16.3834 24.5169C16.5853 24.3032 16.862 24.1727 17.1578 24.1514H29.4115C29.7073 24.1727 29.9839 24.3032 30.1859 24.5169C30.3878 24.7306 30.5001 25.0115 30.5001 25.3032C30.5001 25.5949 30.3878 25.8759 30.1859 26.0895C29.9839 26.3032 29.7073 26.4338 29.4115 26.455Z" fill="#0066FF"/>
<path d="M14.2473 13.2721C14.2472 13.6384 14.1361 13.9964 13.9283 14.3003C13.7204 14.6042 13.4251 14.8403 13.0802 14.9785C12.7353 15.1166 12.3563 15.1505 11.9917 15.0758C11.6271 15.0012 11.2934 14.8213 11.0332 14.5593C10.773 14.2972 10.5981 13.9648 10.5308 13.6046C10.4636 13.2443 10.5069 12.8725 10.6555 12.5366C10.804 12.2007 11.051 11.9159 11.3648 11.7187C11.6786 11.5214 12.0451 11.4207 12.4174 11.4292C12.9067 11.4404 13.3721 11.6396 13.7141 11.984C14.0561 12.3284 14.2474 12.7907 14.2473 13.2721Z" fill="#0066FF"/>
<path d="M14.2473 19.2801C14.2473 19.6446 14.1374 20.0009 13.9315 20.3039C13.7257 20.607 13.433 20.8432 13.0907 20.9827C12.7483 21.1222 12.3716 21.1587 12.0081 21.0876C11.6447 21.0165 11.3108 20.8409 11.0488 20.5832C10.7867 20.3255 10.6083 19.9971 10.536 19.6396C10.4637 19.2821 10.5008 18.9116 10.6426 18.5748C10.7844 18.2381 11.0246 17.9503 11.3327 17.7478C11.6408 17.5453 12.0031 17.4372 12.3737 17.4372C12.8706 17.4372 13.3472 17.6313 13.6985 17.977C14.0499 18.3226 14.2473 18.7913 14.2473 19.2801Z" fill="#0066FF"/>
<path d="M14.2473 25.3001C14.2473 25.6646 14.1374 26.0209 13.9315 26.3239C13.7257 26.627 13.433 26.8632 13.0907 27.0027C12.7483 27.1422 12.3716 27.1787 12.0081 27.1076C11.6447 27.0364 11.3108 26.8609 11.0488 26.6032C10.7867 26.3455 10.6083 26.0171 10.536 25.6596C10.4637 25.3021 10.5008 24.9316 10.6426 24.5948C10.7844 24.2581 11.0246 23.9703 11.3327 23.7678C11.6408 23.5653 12.0031 23.4572 12.3737 23.4572C12.8706 23.4572 13.3472 23.6513 13.6985 23.9969C14.0499 24.3426 14.2473 24.8113 14.2473 25.3001Z" fill="#0066FF"/>
</svg>
