<svg width="16" height="16" viewBox="0 0 16 16" fill="none" xmlns="http://www.w3.org/2000/svg">
<g id="Layer 2">
<g id="Layer 1">
<path id="Vector" d="M14.1418 1.65456L13.5478 1.02008C12.9286 0.366807 12.0901 0 11.216 0C10.3419 0 9.50345 0.366807 8.88425 1.02008L7.00318 3.00076L0.229271 10.1731C0.0826496 10.3282 0.000182429 10.5385 0 10.758L0 15.1717C0 15.3912 0.0823475 15.6017 0.228927 15.7569C0.375506 15.9121 0.574311 15.9993 0.781605 15.9993H4.95017C5.15717 15.9979 5.35543 15.9108 5.5025 15.7566L12.2764 8.58418V8.55659L14.1418 6.62005C14.4532 6.29604 14.7004 5.90963 14.8692 5.48336C15.038 5.0571 15.1249 4.59952 15.1249 4.1373C15.1249 3.67509 15.038 3.21751 14.8692 2.79124C14.7004 2.36498 14.4532 1.97857 14.1418 1.65456V1.65456ZM4.6271 14.3442H1.56321V11.1L7.55552 4.75523L10.6194 7.99935L4.6271 14.3442ZM13.0268 5.43385L11.7241 6.8297L8.66019 3.58558L9.97329 2.20628C10.3045 1.8733 10.7437 1.68766 11.2004 1.68766C11.6571 1.68766 12.0964 1.8733 12.4275 2.20628L13.0268 2.84076C13.1884 3.01053 13.3167 3.2125 13.4043 3.43503C13.4918 3.65756 13.5369 3.89624 13.5369 4.1373C13.5369 4.37837 13.4918 4.61705 13.4043 4.83958C13.3167 5.06211 13.1884 5.26408 13.0268 5.43385V5.43385Z" fill="#4C5866"/>
</g>
</g>
</svg>
