<svg width="28" height="28" viewBox="0 0 28 28" fill="none" xmlns="http://www.w3.org/2000/svg">
<rect y="0.000244141" width="28" height="28" rx="14" fill="#A3B0C2"/>
<g clip-path="url(#clip0_6094_17728)">
<path d="M22 14.0349C22 14.589 21.5152 15.0738 20.961 15.0738H15.0043V21.0305C15.0043 21.5847 14.5195 22.0695 13.9654 22.0695C13.4113 22.0695 12.9264 21.5847 12.9264 21.0305V15.0738H7.03896C6.48485 15.0738 6 14.589 6 14.0349C6 13.4808 6.48485 12.9959 7.03896 12.9959H12.9957V7.03921C12.9957 6.48509 13.4805 6.00024 14.0346 6.00024C14.5887 6.00024 15.0736 6.48509 15.0736 7.03921V12.9959H21.0303C21.5844 12.9959 22.0693 13.4808 22.0693 14.0349H22Z" fill="white"/>
</g>
<defs>
<clipPath id="clip0_6094_17728">
<rect width="16" height="16" fill="white" transform="translate(6 6.00024)"/>
</clipPath>
</defs>
</svg>
