<svg width="28" height="28" viewBox="0 0 28 28" fill="none" xmlns="http://www.w3.org/2000/svg">
<path d="M21.711 20.3548C21.8024 20.4426 21.8751 20.548 21.9247 20.6646C21.9744 20.7812 22 20.9066 22 21.0333C22 21.16 21.9744 21.2855 21.9247 21.4021C21.8751 21.5186 21.8024 21.624 21.711 21.7118C21.624 21.8037 21.5186 21.8763 21.4017 21.9248C21.2848 21.9733 21.1591 21.9967 21.0326 21.9934C20.9062 21.9955 20.7808 21.9716 20.6641 21.9231C20.5474 21.8747 20.4418 21.8027 20.3541 21.7118L13.9921 15.3494L7.63 21.7118C7.54354 21.8048 7.43843 21.8786 7.32152 21.9282C7.2046 21.9779 7.07853 22.0023 6.95155 21.9998C6.8252 22.0019 6.69977 21.978 6.58305 21.9295C6.46634 21.8811 6.36084 21.8091 6.2731 21.7182C6.09787 21.5358 6 21.2927 6 21.0397C6 20.7868 6.09787 20.5436 6.2731 20.3612L12.6736 13.9989L6.2731 7.63008C6.09787 7.44768 6 7.20454 6 6.9516C6 6.69865 6.09787 6.45552 6.2731 6.27311C6.45549 6.09787 6.69862 6 6.95155 6C7.20448 6 7.4476 6.09787 7.63 6.27311L13.9921 12.6355L20.3541 6.27311C20.5365 6.09787 20.7796 6 21.0326 6C21.2855 6 21.5286 6.09787 21.711 6.27311C21.8024 6.36091 21.8751 6.46627 21.9247 6.58286C21.9744 6.69945 22 6.82487 22 6.9516C22 7.07832 21.9744 7.20374 21.9247 7.32033C21.8751 7.43692 21.8024 7.54228 21.711 7.63008L15.3489 13.9925L21.711 20.3548Z" fill="#4C5866"/>
</svg>
