<svg width="28" height="28" viewBox="0 0 28 28" fill="none" xmlns="http://www.w3.org/2000/svg">
<path d="M14.001 7.75C19.421 7.75 22.0707 13.4504 22.1807 13.6904C22.2248 13.7877 22.248 13.8932 22.248 14C22.248 14.1068 22.2248 14.2123 22.1807 14.3096C22.0707 14.5496 19.421 20.25 14.001 20.25C8.58098 20.25 5.92129 14.5496 5.82129 14.3096C5.77717 14.2123 5.75391 14.1068 5.75391 14C5.75391 13.8932 5.77716 13.7877 5.82129 13.6904C5.92129 13.4504 8.58098 7.75 14.001 7.75ZM14.001 9.25C10.211 9.25 7.94082 12.92 7.34082 14C7.94082 15.1 10.201 18.75 14.001 18.75C17.801 18.75 20.0611 15.1 20.6611 14C20.0611 12.9 17.791 9.25 14.001 9.25ZM14.001 10.25C14.9955 10.25 15.9491 10.6454 16.6523 11.3486C17.3556 12.0519 17.751 13.0054 17.751 14C17.751 14.9946 17.3556 15.9481 16.6523 16.6514C15.9491 17.3546 14.9955 17.75 14.001 17.75C13.0064 17.75 12.0529 17.3546 11.3496 16.6514C10.6464 15.9481 10.251 14.9945 10.251 14C10.251 13.0054 10.6464 12.0519 11.3496 11.3486C12.0529 10.6454 13.0064 10.25 14.001 10.25ZM14.001 11.75C13.4042 11.75 12.8321 11.9872 12.4102 12.4092C11.9882 12.8311 11.751 13.4033 11.751 14C11.751 14.5967 11.9882 15.1689 12.4102 15.5908C12.8321 16.0128 13.4042 16.25 14.001 16.25C14.5977 16.25 15.1698 16.0128 15.5918 15.5908C16.0138 15.1689 16.251 14.5967 16.251 14C16.251 13.4033 16.0138 12.8311 15.5918 12.4092C15.1698 11.9872 14.5977 11.75 14.001 11.75Z" fill="#0066FF"/>
</svg>
