<svg width="28" height="28" viewBox="0 0 28 28" fill="none" xmlns="http://www.w3.org/2000/svg">
<path fill-rule="evenodd" clip-rule="evenodd" d="M17.9996 15.25C17.901 15.251 17.8032 15.232 17.7121 15.1942C17.621 15.1564 17.5386 15.1006 17.4697 15.03C17.3989 14.9611 17.3427 14.8786 17.3043 14.7876C17.2659 14.6966 17.2461 14.5988 17.2461 14.5C17.2461 14.4012 17.2659 14.3034 17.3043 14.2124C17.3427 14.1214 17.3989 14.0389 17.4697 13.97L19.5797 11.85C19.793 11.6419 19.9623 11.3931 20.0774 11.1182C20.1925 10.8433 20.2511 10.548 20.2496 10.25C20.2511 9.952 20.1925 9.65674 20.0774 9.38185C19.9623 9.10697 19.793 8.85811 19.5797 8.65004L19.3497 8.42006C19.1402 8.20851 18.8911 8.04041 18.6165 7.92543C18.3419 7.81045 18.0473 7.75082 17.7496 7.75002C17.147 7.74962 16.5686 7.98679 16.1396 8.41005L14.0297 10.53C13.889 10.6705 13.6984 10.7494 13.4996 10.7494C13.3009 10.7494 13.1103 10.6705 12.9697 10.53C12.8989 10.4611 12.8427 10.3786 12.8043 10.2876C12.7659 10.1966 12.7461 10.0988 12.7461 10C12.7461 9.90122 12.7659 9.80344 12.8043 9.71242C12.8427 9.62139 12.8989 9.53893 12.9697 9.46999L15.0797 7.34999C15.4306 7.00017 15.847 6.72294 16.3052 6.5342C16.7633 6.34545 17.2541 6.24891 17.7496 6.25002C18.2437 6.24858 18.7331 6.34503 19.1897 6.53383C19.6463 6.72263 20.0609 7.00003 20.4097 7.34999L20.6396 7.57997C20.9926 7.92907 21.2726 8.34495 21.4631 8.80336C21.6537 9.26177 21.7511 9.75357 21.7496 10.25C21.752 10.7451 21.655 11.2356 21.4643 11.6925C21.2736 12.1494 20.9932 12.5635 20.6396 12.91L18.5297 15.03C18.4604 15.1002 18.3779 15.1557 18.2869 15.1935C18.1959 15.2313 18.0982 15.2505 17.9996 15.25ZM10.25 21.7499C9.75453 21.751 9.26371 21.6544 8.80557 21.4657C8.34743 21.277 7.93097 20.9997 7.58005 20.6499L7.35007 20.4199C7.00025 20.069 6.72302 19.6525 6.53427 19.1943C6.34552 18.7362 6.24892 18.2454 6.25003 17.7499C6.24805 17.2557 6.34428 16.7661 6.53311 16.3094C6.72195 15.8528 6.99966 15.4383 7.35007 15.0898L9.47006 12.9698C9.61069 12.8294 9.80128 12.7505 10 12.7505C10.1988 12.7505 10.3894 12.8294 10.5301 12.9698C10.6705 13.1105 10.7494 13.3011 10.7494 13.4999C10.7494 13.6986 10.6705 13.8893 10.5301 14.0299L8.41006 16.1499C8.19806 16.3585 8.03031 16.6076 7.9169 16.8826C7.80349 17.1575 7.74673 17.4525 7.75003 17.7499C7.74673 18.0473 7.80349 18.3423 7.9169 18.6172C8.03031 18.8921 8.19806 19.1413 8.41006 19.3499L8.64004 19.5798C8.85066 19.7926 9.10145 19.9614 9.37784 20.0764C9.65422 20.1914 9.95067 20.2504 10.25 20.2499C10.8492 20.2477 11.4236 20.0107 11.8501 19.5898L13.9701 17.4698C14.1107 17.3294 14.3013 17.2505 14.5 17.2505C14.6988 17.2505 14.8894 17.3294 15.0301 17.4698C15.1705 17.6105 15.2494 17.8011 15.2494 17.9999C15.2494 18.1986 15.1705 18.3893 15.0301 18.5299L12.9101 20.6499C12.5613 20.9999 12.1467 21.2773 11.6901 21.4661C11.2335 21.6549 10.7441 21.7513 10.25 21.7499ZM11.2121 17.1941C11.3032 17.2319 11.401 17.2509 11.4996 17.2499C11.5982 17.2503 11.6959 17.2311 11.7869 17.1934C11.8779 17.1556 11.9604 17.1 12.0297 17.0299L17.0297 12.0299C17.1701 11.8893 17.249 11.6986 17.249 11.4999C17.249 11.3011 17.1701 11.1105 17.0297 10.9698C16.889 10.8294 16.6984 10.7505 16.4996 10.7505C16.3009 10.7505 16.1103 10.8294 15.9697 10.9698L10.9697 15.9698C10.8989 16.0388 10.8427 16.1213 10.8043 16.2123C10.7659 16.3033 10.7461 16.4011 10.7461 16.4999C10.7461 16.5987 10.7659 16.6964 10.8043 16.7875C10.8427 16.8785 10.8989 16.961 10.9697 17.0299C11.0386 17.1005 11.121 17.1563 11.2121 17.1941Z" fill="#0066FF"/>
</svg>
