<svg width="28" height="28" viewBox="0 0 28 28" fill="none" xmlns="http://www.w3.org/2000/svg">
<g id="Icon 2">
<path id="Union" fill-rule="evenodd" clip-rule="evenodd" d="M20.2501 9.25024H17.5001V8.00024C17.4974 7.53693 17.3122 7.09325 16.9846 6.76562C16.657 6.438 16.2134 6.25287 15.7501 6.25024H12.7501C12.2859 6.25024 11.8408 6.43463 11.5126 6.76282C11.1845 7.09101 11.0001 7.53612 11.0001 8.00024V9.25024H7.75007C7.55116 9.25024 7.36039 9.3292 7.21973 9.46985C7.07908 9.6105 7.00007 9.80133 7.00007 10.0002C6.99872 10.0991 7.01724 10.1972 7.05445 10.2888C7.09167 10.3804 7.14683 10.4637 7.21674 10.5336C7.28666 10.6035 7.36989 10.6586 7.46149 10.6958C7.5531 10.733 7.6512 10.7516 7.75007 10.7502H8.50007L9.14008 20.1202C9.17041 20.5615 9.36676 20.9749 9.68958 21.2773C10.0124 21.5798 10.4377 21.7488 10.8801 21.7502H17.5201C17.9635 21.7489 18.39 21.5803 18.7145 21.2781C19.0389 20.9759 19.2373 20.5624 19.2701 20.1202L19.9001 10.7502H20.2501C20.449 10.7502 20.6398 10.6712 20.7804 10.5305C20.9211 10.3899 21.0001 10.1992 21.0001 10.0002C20.9975 9.80214 20.9176 9.61287 20.7775 9.47278C20.6374 9.33268 20.4482 9.25283 20.2501 9.25024ZM12.5001 8.00024C12.5001 7.93394 12.5264 7.87037 12.5733 7.82349C12.6202 7.7766 12.6838 7.75024 12.7501 7.75024H15.7501C15.8164 7.75024 15.88 7.7766 15.9269 7.82349C15.9738 7.87037 16.0001 7.93394 16.0001 8.00024V9.25024H12.5001V8.00024ZM17.7701 20.0002C17.765 20.063 17.7365 20.1215 17.6901 20.1642C17.6438 20.2068 17.5831 20.2304 17.5201 20.2302H10.8901C10.8586 20.2316 10.8271 20.2267 10.7974 20.2158C10.7678 20.205 10.7406 20.1884 10.7174 20.167C10.6942 20.1456 10.6754 20.1199 10.6621 20.0913C10.6489 20.0627 10.6414 20.0318 10.6401 20.0002L10.0101 10.7302H18.4001L17.7701 20.0002ZM12.7501 17.7502C12.6512 17.7516 12.5531 17.733 12.4615 17.6958C12.3699 17.6586 12.2867 17.6035 12.2167 17.5336C12.1468 17.4637 12.0917 17.3804 12.0545 17.2888C12.0172 17.1972 11.9987 17.0991 12.0001 17.0002V14.0002C12.0001 13.8013 12.0791 13.6105 12.2197 13.4698C12.3604 13.3292 12.5512 13.2502 12.7501 13.2502C12.9482 13.2528 13.1374 13.3327 13.2775 13.4728C13.4176 13.6129 13.4975 13.8021 13.5001 14.0002V17.0002C13.5001 17.1992 13.4211 17.3899 13.2804 17.5305C13.1398 17.6712 12.949 17.7502 12.7501 17.7502ZM15.4615 17.6958C15.5531 17.733 15.6512 17.7516 15.7501 17.7502C15.949 17.7502 16.1398 17.6712 16.2804 17.5305C16.4211 17.3899 16.5001 17.1992 16.5001 17.0002V14.0002C16.4975 13.8021 16.4176 13.6129 16.2775 13.4728C16.1374 13.3327 15.9482 13.2528 15.7501 13.2502C15.5512 13.2502 15.3604 13.3292 15.2197 13.4698C15.0791 13.6105 15.0001 13.8013 15.0001 14.0002V17.0002C14.9987 17.0991 15.0172 17.1972 15.0545 17.2888C15.0917 17.3804 15.1468 17.4637 15.2167 17.5336C15.2867 17.6035 15.3699 17.6586 15.4615 17.6958Z" fill="#4C5866"/>
</g>
</svg>
