<svg width="22" height="22" viewBox="0 0 22 22" fill="none" xmlns="http://www.w3.org/2000/svg">
<path d="M17.2863 10.9998C17.2842 12.6141 16.642 14.1617 15.5005 15.3032C14.359 16.4447 12.8114 17.087 11.197 17.089C10.3973 17.0899 9.60521 16.9328 8.86632 16.6267C8.12743 16.3206 7.45626 15.8716 6.89134 15.3055C6.83575 15.2513 6.79155 15.1865 6.76138 15.115C6.73121 15.0435 6.71568 14.9667 6.71568 14.889C6.71568 14.8114 6.73121 14.7346 6.76138 14.6631C6.79155 14.5915 6.83575 14.5268 6.89134 14.4726C6.94551 14.417 7.01026 14.3728 7.08178 14.3427C7.1533 14.3125 7.23012 14.2969 7.30774 14.2969C7.38537 14.2969 7.46224 14.3125 7.53376 14.3427C7.60528 14.3728 7.67003 14.417 7.7242 14.4726C8.17925 14.93 8.72052 15.2926 9.31663 15.5394C9.91274 15.7862 10.5519 15.9123 11.197 15.9105C12.4982 15.9063 13.7449 15.3876 14.6649 14.4676C15.5849 13.5475 16.1036 12.3009 16.1078 10.9998C16.1057 9.69799 15.5876 8.45014 14.6672 7.52965C13.7467 6.60916 12.4988 6.09112 11.197 6.08904C10.2971 6.08543 9.41544 6.34343 8.65939 6.83165C7.90334 7.31987 7.30547 8.01728 6.93848 8.83904H8.05418C8.21047 8.83904 8.36036 8.90112 8.47087 9.01163C8.58139 9.12215 8.64347 9.27204 8.64347 9.42832C8.64143 9.58398 8.57869 9.73269 8.46862 9.84276C8.35855 9.95284 8.20984 10.0156 8.05418 10.0176H5.30418C5.14789 10.0176 4.998 9.95552 4.88749 9.84501C4.77698 9.7345 4.7149 9.58461 4.7149 9.42832V6.67832C4.71384 6.60064 4.72839 6.52354 4.75763 6.45157C4.78687 6.3796 4.83021 6.31421 4.88514 6.25928C4.94007 6.20435 5.00547 6.16098 5.07745 6.13174C5.14942 6.1025 5.2265 6.08798 5.30418 6.08904C5.46047 6.08904 5.61036 6.15112 5.72087 6.26164C5.83139 6.37215 5.89347 6.52204 5.89347 6.67832V8.2969C6.35617 7.28065 7.10322 6.4201 8.04435 5.81917C8.98548 5.21824 10.0804 4.90263 11.197 4.91047C12.8114 4.91255 14.359 5.55476 15.5005 6.69627C16.642 7.83779 17.2842 9.38541 17.2863 10.9998Z" fill="#A3B0C2"/>
</svg>
