<svg width="28" height="28" viewBox="0 0 28 28" fill="none" xmlns="http://www.w3.org/2000/svg">
<circle cx="14" cy="14" r="13.5" fill="#0066FF" stroke="white"/>
<g clip-path="url(#clip0_3320_6974)">
<path d="M21.6127 17.3057L18.3077 13.9974L20.3979 11.9051C21.5862 10.7209 21.5862 8.78264 20.3979 7.59313C19.8249 7.01961 19.061 6.70099 18.244 6.70099C17.4271 6.70099 16.6684 7.01961 16.0902 7.59313L14 9.68539L12.7056 8.38968L10.695 6.37706C10.1963 5.87789 9.32096 5.87789 8.82228 6.37706L6.38727 8.8145C6.13793 9.06409 6 9.39864 6 9.75443C6 10.1102 6.13793 10.4395 6.38727 10.689L9.69231 13.9974L7.60212 16.0896C7.50133 16.1959 7.42706 16.3233 7.39523 16.4614L7.38462 16.5092V16.5357L6.33422 20.7096C6.26525 20.9805 6.34483 21.2672 6.54111 21.4637C6.69496 21.6177 6.89655 21.6973 7.10345 21.6973C7.16711 21.6973 7.23607 21.692 7.29973 21.6761L11.5438 20.614C11.5438 20.614 11.5597 20.6034 11.5703 20.6034C11.5968 20.5928 11.6286 20.5822 11.6552 20.5716C11.7029 20.5503 11.7507 20.5291 11.7931 20.4972C11.8355 20.4707 11.8727 20.4388 11.9098 20.4016L14 18.3094L17.305 21.623C17.565 21.8779 17.9045 22.0053 18.244 22.0053C18.5836 22.0053 18.9231 21.8779 19.1777 21.6177L21.6127 19.1803C21.8674 18.9307 22 18.5961 22 18.2456C22 17.8952 21.8621 17.5553 21.6127 17.3057ZM17.2149 8.71892C17.7666 8.17195 18.7215 8.16664 19.2732 8.71892C19.8408 9.28712 19.8408 10.2111 19.2732 10.7793L18.7745 11.2785L16.7162 9.21809L17.2149 8.71892ZM7.70292 9.74912L9.76127 7.68871L11.0186 8.94726L9.98939 9.97746C9.6817 10.2908 9.6817 10.7953 9.98939 11.1033C10.1485 11.2626 10.3501 11.3369 10.5517 11.3369C10.7533 11.3369 10.9602 11.2626 11.1141 11.1033L12.1432 10.073L12.8753 10.8059L10.817 12.8663L7.70292 9.74912ZM8.19629 19.8016L8.76923 17.5234C9.60212 17.7412 10.2599 18.3996 10.4721 19.2334L8.19629 19.8016ZM13.4536 16.5994L13.4218 16.6313L11.809 18.2509C11.4111 17.3269 10.6737 16.5888 9.75597 16.1852L11.3793 14.555L15.5915 10.3386L17.6499 12.399L16.6472 13.4079L16.6313 13.4239L16.6154 13.4398L16.5995 13.4557L13.4536 16.5994ZM18.244 20.3007L15.1247 17.1783L17.183 15.1179L17.9151 15.8507L16.8859 16.8809C16.5782 17.1942 16.5782 17.6987 16.8859 18.0067C17.0451 18.166 17.2467 18.2403 17.4483 18.2403C17.6499 18.2403 17.8568 18.166 18.0106 18.0067L19.0398 16.9765L20.3024 18.2403L18.244 20.3007Z" fill="white"/>
</g>
<defs>
<clipPath id="clip0_3320_6974">
<rect width="16" height="16" fill="white" transform="translate(6 6)"/>
</clipPath>
</defs>
</svg>
