<svg width="41" height="40" viewBox="0 0 41 40" fill="none" xmlns="http://www.w3.org/2000/svg">
<path d="M0.5 20C0.5 8.95431 9.45431 0 20.5 0C31.5457 0 40.5 8.95431 40.5 20C40.5 31.0457 31.5457 40 20.5 40C9.45431 40 0.5 31.0457 0.5 20Z" fill="#E5EFFF"/>
<path d="M30.5678 14.7526C30.8127 14.4314 30.9448 14.0422 30.9448 13.6424C30.9448 13.2426 30.8127 12.8533 30.5678 12.5321C30.5161 12.4669 30.4601 12.4051 30.4002 12.347L28.3741 10.3855C28.0522 10.0715 27.6242 9.88122 27.1692 9.84993C26.7142 9.81864 26.2629 9.94841 25.8986 10.2153C24.2396 9.34456 22.3838 8.88867 20.4983 8.88867C18.6128 8.88867 16.7569 9.34456 15.0979 10.2153C14.7678 9.97617 14.3671 9.84701 13.9554 9.84701C13.5437 9.84701 13.143 9.97617 12.8129 10.2153L12.6072 10.3855L10.5964 12.347C10.2769 12.6625 10.0849 13.0792 10.0556 13.5209C10.0262 13.9626 10.1614 14.3998 10.4364 14.7526C9.54042 16.3648 9.07129 18.1683 9.07129 20.0006C9.07129 21.8329 9.54042 23.6364 10.4364 25.2486C10.1904 25.5694 10.0575 25.9588 10.0575 26.3589C10.0575 26.759 10.1904 27.1484 10.4364 27.4691C10.4828 27.5339 10.5364 27.5935 10.5964 27.6468L12.6148 29.6305C12.9734 29.9708 13.4542 30.162 13.9554 30.1634C14.3654 30.173 14.7662 30.0449 15.0903 29.8007C16.7549 30.6623 18.6123 31.1123 20.4983 31.1109C22.3844 31.1104 24.2406 30.6524 25.8986 29.7785C26.1585 29.9722 26.4655 30.0971 26.7898 30.1412H27.0412C27.4586 30.1386 27.8643 30.0063 28.1989 29.7637C28.2673 29.7179 28.3311 29.6658 28.3893 29.6083L30.4002 27.669C30.7231 27.3529 30.9184 26.9347 30.9505 26.4904C30.9827 26.0461 30.8496 25.6054 30.5754 25.2486C31.4649 23.6341 31.9298 21.831 31.9284 19.9997C31.9271 18.1684 31.4597 16.3658 30.5678 14.7526ZM28.4655 13.6202L28.3589 13.7016L25.3883 15.9221C25.1836 15.6924 24.9649 15.4749 24.7333 15.2708L27.0183 12.3914L27.0945 12.2878L28.4655 13.6202ZM24.4133 11.9917L22.7833 14.0865C22.0506 13.8297 21.2772 13.6994 20.4983 13.7016C19.7345 13.7022 18.9766 13.8324 18.2589 14.0865L16.5832 11.9917C17.806 11.425 19.1436 11.1309 20.4983 11.1309C21.853 11.1309 23.1906 11.425 24.4133 11.9917ZM12.2264 16.196L14.4048 17.8244C13.8567 19.2442 13.8567 20.8088 14.4048 22.2286L12.2188 23.857C11.634 22.6593 11.3326 21.3496 11.3366 20.024C11.3405 18.6984 11.6498 17.3904 12.2416 16.196H12.2264ZM14.0087 27.6468L13.9173 27.743L12.5387 26.3959L12.6377 26.3144L15.6083 24.0939C15.8115 24.3273 16.0331 24.5451 16.2709 24.7452L14.0087 27.6468ZM15.6083 15.8999L12.6377 13.6794L12.5387 13.5979L13.9173 12.2656L14.0087 12.3692L16.2938 15.2486C16.0462 15.4459 15.8168 15.6638 15.6083 15.8999ZM16.5832 28.0243L18.2589 25.9295C18.9757 26.1854 19.7348 26.3108 20.4983 26.2996C21.277 26.3148 22.0518 26.1893 22.7833 25.9295L24.4514 28.0539C23.2213 28.6218 21.8757 28.9139 20.5139 28.9088C19.152 28.9037 17.8088 28.6014 16.5832 28.0243ZM20.4983 24.0791C19.7728 24.0821 19.0598 23.8955 18.4341 23.5387C17.773 23.1851 17.2289 22.6564 16.865 22.0139C16.841 21.9972 16.8225 21.9741 16.8117 21.9473C16.4817 21.3512 16.309 20.6849 16.309 20.008C16.309 19.3311 16.4817 18.6648 16.8117 18.0687C16.8239 18.0385 16.842 18.0108 16.865 17.9873C17.2305 17.3662 17.7579 16.8496 18.3943 16.4896C19.0306 16.1297 19.7532 15.9391 20.4895 15.937C21.2258 15.9349 21.9496 16.1214 22.5881 16.4777C23.2265 16.834 23.7571 17.3475 24.1263 17.9666C24.4955 18.5856 24.6903 19.2883 24.6911 20.0038C24.6918 20.7192 24.4986 21.4223 24.1307 22.0421C23.7628 22.6618 23.2334 23.1765 22.5957 23.5341C21.958 23.8917 21.2345 24.0797 20.4983 24.0791ZM27.0716 27.743L26.9955 27.6468L24.7104 24.7674C24.9402 24.5614 25.1588 24.344 25.3655 24.1161L28.3132 26.2996L28.4427 26.3959L27.0716 27.743ZM28.755 23.82L26.5918 22.2286C27.1304 20.8199 27.1304 19.2701 26.5918 17.8615L28.7778 16.233C29.3477 17.4217 29.641 18.7177 29.6371 20.029C29.6331 21.3403 29.332 22.6346 28.755 23.82Z" fill="#0066FF"/>
</svg>
