<svg width="28" height="28" viewBox="0 0 28 28" fill="none" xmlns="http://www.w3.org/2000/svg">
<path d="M21.4432 12.6575L15.3417 6.55592C14.6005 5.81469 13.3987 5.81469 12.6575 6.55592L6.55592 12.6575C5.81469 13.3987 5.81469 14.6005 6.55592 15.3417L12.6575 21.4432C13.3987 22.1845 14.6005 22.1845 15.3417 21.4432L21.4432 15.3417C22.1845 14.6005 22.1845 13.3987 21.4432 12.6575Z" fill="#0066FF"/>
<path fill-rule="evenodd" clip-rule="evenodd" d="M18.1144 12.6177C18.2203 12.8869 18.2417 13.0771 18.0501 13.2258C16.3142 14.5586 14.6278 16.1365 13.1169 18.064C12.9159 18.3198 12.7686 18.3466 12.5449 18.0747C11.8551 17.2388 10.8719 16.3588 9.6704 15.3555C9.54315 15.2511 9.59807 15.1158 9.69987 14.9617C9.98651 14.5264 10.2571 14.0455 10.5826 13.5647C10.7339 13.341 10.9027 13.3276 11.1143 13.5004C11.4787 13.7951 11.9462 14.146 12.4498 14.6269C12.6655 14.8331 12.8423 14.8599 13.0164 14.6563C14.084 13.4146 15.3832 12.1971 16.8821 10.9581C17.0683 10.8054 17.2183 10.8147 17.3657 11.0411C17.7153 11.5782 17.9215 12.1194 18.1158 12.6163L18.1144 12.6177Z" fill="white"/>
</svg>
