<svg width="28" height="28" viewBox="0 0 28 28" fill="none" xmlns="http://www.w3.org/2000/svg">
<path fill-rule="evenodd" clip-rule="evenodd" d="M14.2062 6.50555C15.3718 7.98958 19.2135 9.3579 20.5986 9.75531C20.7613 9.80385 20.9035 9.90144 21.0042 10.0337C21.1049 10.1659 21.1588 10.3258 21.1579 10.4898V15.0173C21.1579 19.4744 14.201 22.6135 13.9083 22.7443C13.8056 22.792 13.6929 22.8161 13.579 22.8147C13.465 22.8166 13.3521 22.7925 13.2497 22.7443C12.9517 22.6135 6.00004 19.4744 6.00004 15.0173V10.4898C5.99829 10.3256 6.05183 10.1654 6.15266 10.033C6.25348 9.90055 6.39615 9.80314 6.55931 9.75531C7.94443 9.36796 11.7914 7.99964 12.9517 6.50555C13.0283 6.4169 13.1241 6.34555 13.2325 6.29658C13.3409 6.24761 13.4592 6.22223 13.579 6.22223C13.6987 6.22223 13.817 6.24761 13.9254 6.29658C14.0338 6.34555 14.1297 6.4169 14.2062 6.50555ZM13.579 21.2251C15.5233 20.2843 19.5898 17.7489 19.5898 15.0173V11.0431C18.2831 10.6306 15.262 9.55409 13.579 8.0751C11.8959 9.53397 8.85912 10.6306 7.56809 11.0431V15.0173C7.56809 17.7489 11.6346 20.2843 13.579 21.2251ZM14.2807 15.8463H14.9825C15.1686 15.8463 15.3471 15.9153 15.4787 16.0381C15.6103 16.1609 15.6842 16.3275 15.6842 16.5012C15.6842 16.6749 15.6103 16.8414 15.4787 16.9643C15.3471 17.0871 15.1686 17.1561 14.9825 17.1561H14.2807V17.7935C14.2807 17.9672 14.2068 18.1337 14.0752 18.2565C13.9436 18.3794 13.7651 18.4483 13.5789 18.4483C13.3928 18.4483 13.2143 18.3794 13.0827 18.2565C12.9511 18.1337 12.8772 17.9672 12.8772 17.7935V14.4056C12.409 14.2511 12.0144 13.9471 11.7631 13.5474C11.5118 13.1476 11.42 12.6779 11.504 12.2211C11.588 11.7643 11.8423 11.35 12.222 11.0513C12.6017 10.7525 13.0823 10.5887 13.5789 10.5887C14.0756 10.5887 14.5562 10.7525 14.9359 11.0513C15.3156 11.35 15.5699 11.7643 15.6539 12.2211C15.7379 12.6779 15.6461 13.1476 15.3948 13.5474C15.1435 13.9471 14.7489 14.2511 14.2807 14.4056V15.8463ZM13.9688 12.0274C13.8534 11.9555 13.7177 11.9171 13.5789 11.9171C13.3928 11.9171 13.2143 11.9861 13.0827 12.1089C12.9511 12.2317 12.8772 12.3983 12.8772 12.5719C12.8772 12.7015 12.9184 12.8281 12.9955 12.9358C13.0726 13.0435 13.1822 13.1274 13.3104 13.177C13.4386 13.2265 13.5797 13.2395 13.7159 13.2142C13.852 13.189 13.977 13.1266 14.0752 13.035C14.1733 12.9434 14.2401 12.8267 14.2672 12.6997C14.2943 12.5727 14.2804 12.441 14.2273 12.3213C14.1742 12.2017 14.0842 12.0994 13.9688 12.0274Z" fill="#0066FF"/>
</svg>
