<svg width="28" height="28" viewBox="0 0 28 28" fill="none" xmlns="http://www.w3.org/2000/svg">
<path d="M10.2965 14.0024C8.91765 14.0024 7.79765 12.8824 7.79765 11.5035C7.79765 10.1247 8.91765 9 10.2965 9C11.6753 9 12.7953 10.12 12.7953 11.4988C12.7953 12.8776 11.6753 13.9976 10.2965 13.9976V14.0024ZM10.2965 10.4118C9.69412 10.4118 9.20941 10.9012 9.20941 11.4988C9.20941 12.0965 9.69882 12.5859 10.2965 12.5859C10.8941 12.5859 11.3835 12.0965 11.3835 11.4988C11.3835 10.9012 10.8941 10.4118 10.2965 10.4118Z" fill="#0066FF"/>
<path d="M10.2965 19.8518C9.58118 19.8518 6 19.7435 6 17.6494C6 16.2471 7.91529 14.5529 10.2965 14.5529C12.6776 14.5529 14.5929 16.2471 14.5929 17.6494C14.5929 19.7435 11.0165 19.8518 10.2965 19.8518ZM10.2965 15.9647C8.54588 15.9647 7.41176 17.2165 7.41176 17.6494C7.41176 17.9647 8.62118 18.44 10.2965 18.44C11.9718 18.44 13.1812 17.9694 13.1812 17.6494C13.1812 17.2165 12.0471 15.9647 10.2965 15.9647Z" fill="#0066FF"/>
<path d="M22 15.7812C22 15.9647 21.9247 16.1482 21.7929 16.28L20.32 17.7529C20.1788 17.8894 20 17.96 19.8212 17.96C19.6424 17.96 19.4588 17.8894 19.3176 17.7529C19.0447 17.4753 19.0447 17.0282 19.3176 16.7553L19.5859 16.4871H17.2988C16.9082 16.4871 16.5929 16.1671 16.5929 15.7812C16.5929 15.3953 16.9082 15.0753 17.2988 15.0753H19.5906L19.3176 14.8024C19.0447 14.5294 19.0447 14.0824 19.3176 13.8047C19.5953 13.5318 20.0424 13.5318 20.32 13.8047L21.7929 15.2824C21.9247 15.4141 22 15.5929 22 15.7812Z" fill="#0066FF"/>
<path d="M19.5294 11.8941C19.5294 12.2847 19.2141 12.6 18.8235 12.6H16.5271L16.8 12.8729C17.0776 13.1459 17.0776 13.5929 16.8 13.8706C16.6635 14.0071 16.4847 14.0776 16.3012 14.0776C16.1176 14.0776 15.9435 14.0071 15.8024 13.8706L14.3294 12.3929C14.0518 12.12 14.0518 11.6729 14.3294 11.3953L15.8024 9.92235C16.08 9.64471 16.5271 9.64471 16.8 9.92235C17.0776 10.1953 17.0776 10.6424 16.8 10.92L16.5318 11.1882H18.8235C19.2141 11.1882 19.5294 11.5082 19.5294 11.8941Z" fill="#0066FF"/>
</svg>
