<svg width="40" height="40" viewBox="0 0 40 40" fill="none" xmlns="http://www.w3.org/2000/svg">
<path d="M0 20C0 8.95431 8.95431 0 20 0C31.0457 0 40 8.95431 40 20C40 31.0457 31.0457 40 20 40C8.95431 40 0 31.0457 0 20Z" fill="#E5EFFF"/>
<path d="M20.0282 11.744C19.5417 11.744 19.1469 11.3492 19.1469 10.8627V9.45261C19.1469 8.96612 19.5417 8.57129 20.0282 8.57129C20.5147 8.57129 20.9095 8.96612 20.9095 9.45261V10.8627C20.9095 11.3492 20.5147 11.744 20.0282 11.744Z" fill="#0066FF"/>
<path d="M13.5417 14.4233C13.316 14.4233 13.0904 14.3387 12.9212 14.1624L11.9341 13.1753C11.5887 12.8298 11.5887 12.2728 11.9341 11.9274C12.2796 11.5819 12.8366 11.5819 13.1821 11.9274L14.1692 12.9144C14.5146 13.2599 14.5146 13.8169 14.1692 14.1624C13.9999 14.3316 13.7743 14.4233 13.5487 14.4233H13.5417Z" fill="#0066FF"/>
<path d="M10.8627 20.9098H9.45261C8.96612 20.9098 8.57129 20.5149 8.57129 20.0284C8.57129 19.542 8.96612 19.1471 9.45261 19.1471H10.8627C11.3492 19.1471 11.744 19.542 11.744 20.0284C11.744 20.5149 11.3492 20.9098 10.8627 20.9098Z" fill="#0066FF"/>
<path d="M12.5546 28.3833C12.329 28.3833 12.1033 28.2987 11.9341 28.1225C11.5887 27.777 11.5887 27.22 11.9341 26.8745L12.9212 25.8874C13.2667 25.542 13.8237 25.542 14.1692 25.8874C14.5146 26.2329 14.5146 26.7899 14.1692 27.1354L13.1821 28.1225C13.0129 28.2917 12.7872 28.3833 12.5616 28.3833H12.5546Z" fill="#0066FF"/>
<path d="M27.5018 28.3833C27.2762 28.3833 27.0505 28.2987 26.8813 28.1225L25.8942 27.1354C25.5488 26.7899 25.5488 26.2329 25.8942 25.8874C26.2397 25.542 26.7967 25.542 27.1422 25.8874L28.1293 26.8745C28.4747 27.22 28.4747 27.777 28.1293 28.1225C27.9601 28.2917 27.7344 28.3833 27.5088 28.3833H27.5018Z" fill="#0066FF"/>
<path d="M30.6044 20.9098H29.1943C28.7078 20.9098 28.3129 20.5149 28.3129 20.0284C28.3129 19.542 28.7078 19.1471 29.1943 19.1471H30.6044C31.0909 19.1471 31.4857 19.542 31.4857 20.0284C31.4857 20.5149 31.0909 20.9098 30.6044 20.9098Z" fill="#0066FF"/>
<path d="M26.5147 14.4233C26.2891 14.4233 26.0635 14.3387 25.8942 14.1624C25.5488 13.8169 25.5488 13.2599 25.8942 12.9144L26.8813 11.9274C27.2268 11.5819 27.7838 11.5819 28.1293 11.9274C28.4747 12.2728 28.4747 12.8298 28.1293 13.1753L27.1422 14.1624C26.973 14.3316 26.7474 14.4233 26.5217 14.4233H26.5147Z" fill="#0066FF"/>
<path d="M20.0285 12.8016H19.7817C15.911 12.9638 12.8158 16.1013 12.7312 19.9579C12.7312 22.1154 13.7112 24.1953 15.3469 25.542C15.5514 25.7605 15.5514 25.9015 15.5514 25.9509V26.8322C15.4668 29.1307 17.2012 31.1401 19.5138 31.408C19.6689 31.4292 19.8311 31.4362 19.9933 31.4362C20.9733 31.4362 21.9322 31.0978 22.7148 30.4632C23.6525 29.7159 24.2306 28.6442 24.3646 27.4527V25.9509C24.3646 25.9015 24.3646 25.7676 24.562 25.5561C26.2541 24.294 27.2553 22.2353 27.2553 20.0284C27.2553 16.0449 24.0121 12.8016 20.0285 12.8016ZM21.6149 29.0884C21.0649 29.5326 20.3881 29.73 19.7112 29.6595C18.7101 29.5467 17.8781 28.8628 17.5115 27.9603H22.4398C22.2706 28.3974 21.9886 28.7852 21.6149 29.0884ZM23.4621 24.1812L23.3564 24.2658C22.8628 24.7594 22.602 25.3446 22.602 25.9509V26.1977H17.314V25.9509C17.314 25.3446 17.0532 24.7594 16.5667 24.2658C16.5455 24.2447 16.5173 24.2235 16.4962 24.2094C15.2412 23.1941 14.4938 21.6078 14.4938 19.972C14.5573 17.0602 16.9122 14.6841 19.817 14.5643H20.0285C23.0955 14.5643 25.4927 16.9615 25.4927 20.0284C25.4927 21.6994 24.7312 23.2505 23.4621 24.1812Z" fill="#0066FF"/>
</svg>
