<svg width="18" height="14" viewBox="0 0 18 14" fill="none" xmlns="http://www.w3.org/2000/svg">
<path d="M15.2345 5.21503C14.9891 3.50231 13.5109 2.18231 11.7273 2.18231C11.4218 2.18231 11.1218 2.22594 10.8218 2.30776C10.0036 0.900488 8.48182 0.000488281 6.81818 0.000488281C4.26 0.000488281 2.18182 2.07867 2.18182 4.63685C2.18182 4.77322 2.18182 4.91503 2.20364 5.05685C0.845455 5.8914 0 7.37503 0 9.00049C0 11.5587 2.07818 13.6369 4.63636 13.6369H13.3636C13.3964 13.6369 13.4345 13.6369 13.4673 13.6314C13.5218 13.6369 13.5764 13.6369 13.6364 13.6369C16.0418 13.6369 18 11.6787 18 9.27322C18 7.4514 16.8927 5.86413 15.2345 5.21503ZM13.6364 12.0005C13.5982 12.0005 13.56 11.995 13.5218 11.995L13.4127 11.9841H13.3691C13.3145 11.9841 13.26 11.9896 13.2109 12.0005H4.63636C2.98364 12.0005 1.63636 10.6532 1.63636 9.00049C1.63636 7.80594 2.34 6.7314 3.43091 6.2514C3.79636 6.09322 3.99273 5.70049 3.9 5.31867C3.84545 5.08412 3.81818 4.85503 3.81818 4.63685C3.81818 2.98412 5.16545 1.63685 6.81818 1.63685C8.07818 1.63685 9.21818 2.43867 9.64364 3.63322C9.72546 3.85685 9.9 4.03685 10.1291 4.12412C10.3527 4.20594 10.6036 4.18412 10.8164 4.06958C11.1055 3.90049 11.4164 3.81867 11.7273 3.81867C12.7691 3.81867 13.6145 4.65322 13.6364 5.68958C13.6364 5.73322 13.6255 5.79322 13.6255 5.82594C13.6255 6.20776 13.8873 6.53503 14.2582 6.62231C15.4964 6.9114 16.3636 8.00231 16.3636 9.27322C16.3636 10.7787 15.1418 12.0005 13.6364 12.0005Z" fill="#1F2937"/>
<path d="M11.2898 7.85484C11.1316 8.06756 10.8861 8.18211 10.6352 8.18211C10.4661 8.18211 10.2916 8.12756 10.1443 8.01847L9.2716 7.36393V10.0912C9.2716 10.5439 8.90615 10.9094 8.45342 10.9094C8.0007 10.9094 7.63524 10.5439 7.63524 10.0912V7.36393L6.76251 8.01847C6.40251 8.2912 5.88979 8.21484 5.61706 7.85484C5.34433 7.49484 5.4207 6.98211 5.7807 6.70938L7.96251 5.07302C7.96251 5.07302 7.97888 5.06211 7.98979 5.05665C7.99524 5.04575 8.00615 5.04029 8.01706 5.04029C8.04979 5.01302 8.08251 4.99665 8.11524 4.98575C8.32797 4.88756 8.57888 4.88756 8.7916 4.98575C8.82433 4.99665 8.85706 5.01302 8.88979 5.04029C8.90069 5.04029 8.9116 5.04575 8.91706 5.05665C8.92797 5.06211 8.93342 5.06756 8.94433 5.07302L11.1261 6.70938C11.4861 6.98211 11.5625 7.49484 11.2898 7.85484Z" fill="#1F2937"/>
</svg>
