<svg width="28" height="28" viewBox="0 0 28 28" fill="none" xmlns="http://www.w3.org/2000/svg">
<path d="M21.8871 20.8377C21.7478 20.6004 21.4899 20.4507 21.2112 20.4507H18.6417L17.8059 18.3559C17.7491 18.2115 17.6511 18.0876 17.5221 17.9999C17.3931 17.9174 17.2435 17.8709 17.0887 17.8709H9.8033L7.96131 14.6513C7.822 14.414 7.56918 14.2643 7.29056 14.2592C7.0171 14.2592 6.75912 14.4088 6.62497 14.641C6.4805 14.8835 6.4805 15.1776 6.61465 15.4149L8.49275 18.7016L7.7962 20.4507H6.7746C6.50114 20.4507 6.24316 20.6004 6.10901 20.8325C5.96454 21.075 5.96454 21.3743 6.10385 21.6065C6.24316 21.849 6.49598 21.9986 6.7746 21.9986H21.2164C21.495 21.9986 21.7478 21.849 21.8871 21.6116C21.9542 21.493 21.9903 21.3588 21.9903 21.2247C21.9903 21.0905 21.9542 20.9564 21.8871 20.8377ZM9.46276 20.4507L9.87553 19.4188H16.5624L16.9752 20.4507H9.46276Z" fill="#0066FF"/>
<path d="M21.1648 13.1447C21.0977 12.2521 20.8294 11.3698 20.3909 10.5958C19.6066 9.15115 18.358 7.97475 16.8771 7.26273L16.9545 7.05118C17.0526 6.7932 17.0061 6.4991 16.8359 6.28756C16.6604 6.07085 16.3818 5.96766 16.1084 6.00894C15.8349 6.05537 15.6079 6.24112 15.5098 6.4991L15.4273 6.71581C11.7794 5.69936 8.01807 7.3298 6.82619 10.4669C6.72816 10.7197 6.76944 11.0086 6.93455 11.215C7.09449 11.4317 7.36795 11.5452 7.63626 11.5143L8.01807 11.4678C8.47211 11.4111 8.9468 11.5143 9.35441 11.7516C9.7517 11.9786 10.0664 12.3398 10.247 12.7577C10.3296 12.9899 10.5102 13.1602 10.7423 13.2376C10.9694 13.3046 11.2222 13.2685 11.4131 13.1395C11.7691 12.9074 12.187 12.7629 12.6205 12.7216C12.832 12.7061 13.0435 12.7113 13.2499 12.7474L12.0942 15.7864C11.9961 16.0444 12.0426 16.3385 12.218 16.5552C12.3625 16.7306 12.5895 16.839 12.8165 16.839C12.8526 16.839 12.8888 16.8338 12.9404 16.8287C13.2138 16.7822 13.446 16.5965 13.5337 16.3385L14.674 13.3511C14.7823 13.4285 14.8804 13.5214 14.9732 13.6194C15.2622 13.9341 15.4789 14.3211 15.5976 14.7287C15.6543 14.966 15.8194 15.157 16.0361 15.2498C16.2477 15.3479 16.5005 15.3375 16.7017 15.2343C17.1196 15.0331 17.6047 14.9764 18.0587 15.0589C18.5076 15.1518 18.9307 15.3943 19.2403 15.7452L19.4931 16.0341C19.6324 16.1837 19.8543 16.2869 20.0813 16.2921C20.1226 16.2921 20.1638 16.2869 20.2154 16.2818C20.4786 16.2302 20.7004 16.0444 20.7985 15.7916C21.0564 15.1054 21.1854 14.3727 21.1854 13.64C21.1854 13.4749 21.1803 13.3098 21.1648 13.1447ZM10.9436 10.4256C10.8817 10.5752 10.8301 10.73 10.7836 10.8848C10.5153 10.6423 10.2161 10.4411 9.89617 10.2914C9.57627 10.1315 9.23574 10.018 8.87457 9.95605C9.34409 9.35753 9.94261 8.86737 10.6185 8.52168C11.2119 8.22242 11.8671 8.03151 12.5327 7.9696C11.8156 8.65067 11.2686 9.49684 10.9436 10.4256ZM16.3096 12.4688C16.2786 12.541 16.2477 12.6184 16.2167 12.6907C15.7369 12.1437 15.1229 11.7258 14.4418 11.4781C13.9207 11.2769 13.3738 11.1737 12.8268 11.1737C12.6514 11.1737 12.476 11.184 12.3057 11.2047C12.3315 11.1273 12.3573 11.0499 12.3831 10.9725C12.832 9.81158 13.6317 8.86221 14.4779 8.48556C14.8907 8.29981 15.2777 8.26885 15.5976 8.39268C16.129 8.64035 16.4953 9.14083 16.583 9.74451C16.6398 10.0386 16.6656 10.3379 16.6656 10.6371C16.6656 11.2614 16.5469 11.8806 16.3096 12.4688ZM18.1929 10.1418C18.5127 10.4978 18.7862 10.8848 19.0132 11.2924L19.0287 11.3285C19.4879 12.1489 19.6943 13.1086 19.6169 14.058C19.0184 13.6813 18.3064 13.4698 17.5943 13.4646H17.5685C17.6356 13.315 17.6975 13.1705 17.7543 13.0209C18.1206 12.1076 18.2702 11.117 18.1929 10.1418Z" fill="#0066FF"/>
</svg>
