<svg width="28" height="28" viewBox="0 0 28 28" fill="none" xmlns="http://www.w3.org/2000/svg">
<path d="M13.65 22.25C13.2787 22.25 12.9226 22.1025 12.6601 21.84C12.3975 21.5774 12.25 21.2213 12.25 20.85V15.75H9.65002C9.27872 15.75 8.92265 15.6025 8.6601 15.34C8.39754 15.0774 8.25 14.7213 8.25 14.35V14.2001C8.25092 13.9266 8.33083 13.6592 8.48004 13.4301L13.18 6.43005C13.3082 6.23697 13.4821 6.07839 13.6862 5.96851C13.8902 5.85862 14.1183 5.80081 14.35 5.80005C14.7213 5.80005 15.0774 5.94753 15.34 6.21008C15.6025 6.47263 15.75 6.82877 15.75 7.20007V12.3H18.35C18.7213 12.3 19.0774 12.4475 19.34 12.7101C19.6025 12.9726 19.75 13.3288 19.75 13.7001V13.86C19.7503 14.1351 19.6666 14.4038 19.51 14.63L14.81 21.63C14.6835 21.8217 14.5112 21.9789 14.3087 22.0872C14.1061 22.1954 13.8797 22.2514 13.65 22.25ZM9.75 14.25H13C13.1981 14.2526 13.3874 14.3324 13.5275 14.4725C13.6676 14.6126 13.7474 14.8019 13.75 15V20.52L18.25 13.75H15C14.9011 13.7513 14.803 13.7329 14.7114 13.6957C14.6198 13.6585 14.5366 13.6032 14.4667 13.5333C14.3968 13.4634 14.3416 13.3802 14.3044 13.2886C14.2672 13.197 14.2487 13.0989 14.25 13V7.47998L9.75 14.25Z" fill="#0066FF"/>
</svg>
