<svg width="10" height="6" viewBox="0 0 10 6" fill="none" xmlns="http://www.w3.org/2000/svg">
<path d="M0.557373 0.74973C0.556634 0.679285 0.570168 0.609412 0.597176 0.544346C0.624185 0.479281 0.664086 0.420395 0.714495 0.371181C0.763742 0.32064 0.822642 0.280461 0.88766 0.253034C0.952679 0.225608 1.02252 0.211487 1.09309 0.211487C1.16365 0.211487 1.2335 0.225608 1.29851 0.253034C1.36353 0.280461 1.42243 0.32064 1.47168 0.371181L5.04311 3.94261L8.61454 0.371181C8.66378 0.32064 8.72264 0.280461 8.78766 0.253034C8.85268 0.225608 8.92252 0.211487 8.99309 0.211487C9.06365 0.211487 9.13349 0.225608 9.19851 0.253034C9.26353 0.280461 9.32243 0.32064 9.37168 0.371181C9.472 0.471628 9.52832 0.607765 9.52832 0.74973C9.52832 0.891695 9.472 1.02788 9.37168 1.12832L5.44311 5.05689C5.34266 5.15722 5.20648 5.21354 5.06451 5.21354C4.92255 5.21354 4.78641 5.15722 4.68597 5.05689L0.757394 1.12832C0.699495 1.08266 0.651762 1.02537 0.617318 0.96017C0.582874 0.894972 0.56246 0.823291 0.557373 0.74973V0.74973Z" fill="#4C5866"/>
</svg>
