<svg width="28" height="28" viewBox="0 0 28 28" fill="none" xmlns="http://www.w3.org/2000/svg">
<path d="M20.5105 14.3279L12.9036 7.31235C12.744 7.16517 12.478 7.06705 12.2652 7.11611C12.0524 7.11611 11.8397 7.26329 11.7333 7.45953L6.14775 17.5658C5.88177 18.0074 5.98816 18.547 6.36053 18.9395L7.95639 20.4113C8.32876 20.7547 8.96711 20.8528 9.44587 20.6075L10.829 19.9697L11.4673 20.5585C11.7333 20.8528 12.1588 21 12.5312 21C12.9036 21 13.01 20.9509 13.2227 20.8528L16.2549 19.4301C16.6805 19.2339 16.9464 18.8414 17.0528 18.4489C17.106 18.0074 16.9464 17.6149 16.6273 17.2715L20.3509 15.4563C20.5637 15.3581 20.7233 15.1619 20.7233 14.9657C20.7233 14.7694 20.7233 14.5241 20.5105 14.3769V14.3279ZM15.6165 18.1545L12.5844 19.5773C12.5844 19.5773 12.5844 19.5773 12.5312 19.5773L12.212 19.2829L15.2442 17.8602L15.6165 18.1545ZM8.86072 19.332L7.47764 18.0564L12.5844 8.93132L18.7551 14.6222L8.86072 19.332Z" fill="#4C5866"/>
<path d="M13.4355 12.2674C13.4355 12.4146 13.4355 12.5127 13.3291 12.6599L9.97782 17.1733C9.81824 17.3696 9.60545 17.4677 9.39267 17.4677C9.17989 17.4677 9.0735 17.4677 8.96711 17.3696C8.80752 17.2715 8.70113 17.1243 8.64794 16.928C8.64794 16.7318 8.64794 16.5846 8.75433 16.4374L12.1056 11.924C12.3184 11.6296 12.7972 11.5315 13.1164 11.7277C13.3291 11.8749 13.4355 12.0711 13.4355 12.3164V12.2674Z" fill="#4C5866"/>
<path d="M21.9468 11.139C21.9468 11.4334 21.7872 11.6787 21.468 11.7768L19.9254 12.3164C19.819 12.3164 19.7658 12.3164 19.6594 12.3164C19.3402 12.3164 19.0742 12.1693 18.9679 11.8749C18.8083 11.5315 18.9679 11.139 19.3934 10.9918L20.9361 10.4522C21.0957 10.4031 21.3085 10.4031 21.5212 10.4522C21.734 10.5012 21.8404 10.6484 21.9468 10.8446C21.9468 10.9428 22 10.9918 22 11.0899L21.9468 11.139Z" fill="#4C5866"/>
<path d="M21.734 7.16517L19.287 9.42191C19.1274 9.56909 18.9679 9.61815 18.7551 9.61815C18.5423 9.61815 18.3827 9.56909 18.2231 9.42191C17.9571 9.17661 17.9571 8.73508 18.2231 8.44072L20.7233 6.18397C20.9893 5.93868 21.468 5.93868 21.7872 6.18397C22.0532 6.47833 22.0532 6.87081 21.7872 7.16517H21.734Z" fill="#4C5866"/>
<path d="M17.0528 6.91987L16.4677 8.3426C16.3613 8.5879 16.0953 8.78414 15.7761 8.78414C15.457 8.78414 15.5633 8.78414 15.5102 8.78414C15.191 8.68602 15.0314 8.39166 15.0314 8.14636C15.0314 7.90106 15.0314 7.99918 15.0314 7.90106L15.6165 6.47833C15.6697 6.33115 15.8293 6.18397 16.0421 6.08585C16.2017 6.03679 16.4145 5.98774 16.6273 6.08585C16.9996 6.23303 17.2124 6.62551 17.0528 6.96893V6.91987Z" fill="#4C5866"/>
</svg>
