<svg width="28" height="28" viewBox="0 0 28 28" fill="none" xmlns="http://www.w3.org/2000/svg">
<path d="M21.9601 11.9103L15.3601 6.72032C14.973 6.41424 14.4935 6.24854 14.0001 6.25032C13.5041 6.2418 13.0204 6.40424 12.6301 6.71033L6.03009 11.9103C5.8749 12.0359 5.77533 12.2174 5.75287 12.4157C5.73042 12.6141 5.7869 12.8133 5.9101 12.9703C6.03385 13.1249 6.21365 13.2242 6.41034 13.2467C6.60704 13.2692 6.80466 13.2129 6.96009 13.0903L7.88007 12.3703V19.9403C7.88007 20.4044 8.06446 20.8496 8.39264 21.1778C8.72083 21.506 9.16594 21.6903 9.63007 21.6903H18.6301C19.0942 21.6903 19.5393 21.506 19.8675 21.1778C20.1957 20.8496 20.3801 20.4044 20.3801 19.9403V12.6103L21.0301 13.1203C21.1637 13.2262 21.3296 13.2827 21.5001 13.2803C21.6129 13.2797 21.7243 13.2544 21.8262 13.206C21.9282 13.1576 22.0183 13.0874 22.0901 13.0003C22.1552 12.9211 22.2037 12.8295 22.2325 12.7311C22.2613 12.6327 22.2699 12.5294 22.2578 12.4276C22.2456 12.3257 22.213 12.2274 22.1618 12.1385C22.1107 12.0496 22.042 11.972 21.9601 11.9103ZM18.8801 19.9103C18.8801 19.9766 18.8537 20.0402 18.8068 20.0871C18.7599 20.134 18.6964 20.1603 18.6301 20.1603H9.63007C9.56377 20.1603 9.5002 20.134 9.45331 20.0871C9.40643 20.0402 9.38007 19.9766 9.38007 19.9103V11.1603L13.5701 7.86032C13.6951 7.7622 13.8513 7.71249 14.0101 7.72032C14.1643 7.72227 14.3143 7.7711 14.4401 7.86032L18.8901 11.3703L18.8801 19.9103Z" fill="#0066FF"/>
</svg>
