<svg width="14" height="14" viewBox="0 0 14 14" fill="none" xmlns="http://www.w3.org/2000/svg">
<path fill-rule="evenodd" clip-rule="evenodd" d="M6.82703 13.2857H6.99987C7.41037 13.3073 7.81302 13.1673 8.12147 12.8956C8.42992 12.6238 8.61964 12.2421 8.6499 11.8321V11.7142V11.5964C8.65627 11.5372 8.6797 11.4812 8.71737 11.4352C8.75504 11.3891 8.80529 11.3551 8.86201 11.3371C8.91094 11.3149 8.96528 11.3076 9.01834 11.316C9.0714 11.3243 9.12086 11.3481 9.16058 11.3842L9.20772 11.4235C9.48929 11.7038 9.8637 11.8713 10.2603 11.8945C10.6569 11.9177 11.0483 11.7949 11.3606 11.5493C11.5283 11.4199 11.6682 11.2579 11.7718 11.073C11.8754 10.8882 11.9405 10.6843 11.9632 10.4737C11.986 10.263 11.9659 10.05 11.9042 9.84729C11.8425 9.6446 11.7404 9.45649 11.6041 9.29426L11.5256 9.20782L11.4392 9.11354C11.4041 9.07488 11.3804 9.02726 11.3706 8.97595C11.3609 8.92464 11.3656 8.87164 11.3842 8.82283V8.77568C11.4038 8.72647 11.4372 8.68397 11.4804 8.6533C11.5236 8.62263 11.5748 8.60511 11.6277 8.60283H11.5492C11.7614 8.59774 11.9705 8.55075 12.1645 8.46457C12.3585 8.37839 12.5336 8.2547 12.6796 8.10063C12.8256 7.94656 12.9398 7.76516 13.0154 7.56683C13.0911 7.3685 13.1269 7.15715 13.1206 6.94496C13.1236 6.90048 13.1236 6.85587 13.1206 6.8114C13.0702 6.42708 12.8841 6.0734 12.596 5.8141C12.3079 5.5548 11.9367 5.40691 11.5492 5.3971H11.4863C11.4261 5.39397 11.3685 5.37172 11.3219 5.33356C11.2752 5.2954 11.242 5.24333 11.227 5.18496C11.2064 5.13755 11.1991 5.08537 11.206 5.03412C11.2129 4.98286 11.2338 4.93449 11.2663 4.89425L11.3134 4.84711C11.5907 4.56386 11.7561 4.18989 11.7792 3.79421C11.8023 3.39854 11.6816 3.00784 11.4392 2.69424C11.3085 2.52883 11.1458 2.39142 10.9609 2.29019C10.7759 2.18895 10.5725 2.12595 10.3627 2.10495C10.1549 2.08049 9.94433 2.0978 9.7433 2.15581C9.54226 2.21383 9.35486 2.31141 9.19204 2.44283L9.09776 2.52925L9.00343 2.61569C8.96322 2.65098 8.91385 2.67412 8.861 2.68247C8.80815 2.69081 8.75403 2.68401 8.7049 2.66283C8.65573 2.64548 8.61292 2.61369 8.58209 2.57164C8.55125 2.52959 8.53379 2.47922 8.53202 2.4271V2.35639C8.52941 1.96018 8.38298 1.57841 8.11993 1.28212C7.85688 0.985829 7.49512 0.795202 7.10201 0.745684C6.89242 0.721225 6.68006 0.739231 6.47758 0.798628C6.27509 0.858024 6.08662 0.957595 5.92344 1.0914C5.59267 1.35839 5.38085 1.74531 5.33416 2.16782C5.33051 2.20703 5.33051 2.24648 5.33416 2.28568V2.45067C5.32986 2.51049 5.30716 2.56754 5.26918 2.61396C5.2312 2.66038 5.17979 2.69391 5.122 2.70997C5.07406 2.73048 5.02131 2.73695 4.96983 2.7286C4.91836 2.72025 4.87029 2.69744 4.83129 2.66283L4.78415 2.62353C4.50188 2.34514 4.12845 2.17828 3.73276 2.15373C3.33706 2.12918 2.94582 2.24861 2.6313 2.48997C2.46236 2.6194 2.32149 2.78179 2.2172 2.9673C2.11291 3.15282 2.04738 3.3576 2.0246 3.5692C2.00183 3.7808 2.02227 3.9948 2.08469 4.19827C2.14711 4.40173 2.2502 4.59041 2.38773 4.75283L2.45846 4.83925L2.55275 4.93353C2.58891 4.97325 2.61261 5.02271 2.62099 5.07577C2.62936 5.12883 2.62205 5.18317 2.59989 5.23211V5.27138C2.58253 5.32056 2.55077 5.36336 2.50872 5.3942C2.46667 5.42503 2.4163 5.44247 2.36418 5.44424H2.29345C1.90455 5.45777 1.53312 5.60896 1.24532 5.87086C0.957515 6.13276 0.772052 6.48835 0.722018 6.87425C0.697558 7.08384 0.715565 7.29622 0.774961 7.49871C0.834358 7.70119 0.933929 7.88964 1.06773 8.05282C1.19845 8.21823 1.36112 8.35563 1.54605 8.45687C1.73098 8.55811 1.93438 8.62111 2.14416 8.6421H2.39559C2.45476 8.64472 2.5116 8.66585 2.55812 8.7025C2.60464 8.73915 2.6385 8.78949 2.65489 8.8464C2.67517 8.8957 2.68148 8.94962 2.67316 9.00228C2.66485 9.05494 2.64223 9.10431 2.60775 9.14497L2.56061 9.19211C2.28487 9.47619 2.12043 9.84994 2.09735 10.2452C2.07427 10.6404 2.19406 11.0307 2.43487 11.345C2.56648 11.5113 2.73039 11.6492 2.91673 11.7505C3.10308 11.8518 3.30801 11.9143 3.51916 11.9342C3.72696 11.9587 3.93757 11.9414 4.13861 11.8834C4.33964 11.8254 4.52705 11.7278 4.68987 11.5964L4.78415 11.51L4.87843 11.4235C4.91709 11.3884 4.96475 11.3647 5.01606 11.355C5.06738 11.3453 5.12038 11.35 5.16919 11.3685H5.21633C5.2655 11.3859 5.30826 11.4177 5.3391 11.4597C5.36993 11.5018 5.38739 11.5521 5.38916 11.6042V11.675C5.39532 12.0714 5.54402 12.4524 5.80806 12.7482C6.0721 13.0439 6.43383 13.2347 6.82703 13.2857ZM5.65633 10.2685C5.47113 10.185 5.27019 10.1422 5.06704 10.1428C4.701 10.1454 4.34867 10.2824 4.07703 10.5278L3.95129 10.6378C3.91059 10.6756 3.86191 10.7036 3.80886 10.7199C3.75581 10.7363 3.69978 10.7404 3.6449 10.7321C3.59188 10.7284 3.54015 10.7139 3.49288 10.6896C3.44561 10.6653 3.40376 10.6316 3.36987 10.5907C3.30152 10.5004 3.26858 10.3882 3.27727 10.2753C3.28595 10.1624 3.33566 10.0566 3.41701 9.97783L3.47202 9.91496C3.66566 9.70804 3.79422 9.44877 3.84171 9.16938C3.88921 8.88999 3.85357 8.60281 3.73918 8.34353C3.63602 8.08008 3.45858 7.85226 3.22845 7.68768C2.99832 7.5231 2.72538 7.42886 2.44273 7.41639H2.2699C2.15933 7.40109 2.05841 7.34504 1.98701 7.25924C1.91987 7.17778 1.88617 7.07388 1.89272 6.96853C1.90647 6.85467 1.96264 6.7502 2.05002 6.67592C2.1374 6.60165 2.2496 6.56305 2.36418 6.56783H2.4506C2.72898 6.55467 2.99774 6.46176 3.2248 6.30016C3.45187 6.13857 3.62768 5.91511 3.73132 5.6564C3.84471 5.39745 3.88054 5.11116 3.83452 4.83225C3.7885 4.55333 3.66259 4.29376 3.47202 4.08497L3.35414 3.96712C3.28474 3.88108 3.2517 3.77136 3.26197 3.6613C3.27224 3.55124 3.32502 3.44954 3.40915 3.37783C3.49943 3.30948 3.6116 3.27652 3.72451 3.2852C3.83741 3.29389 3.94326 3.34362 4.02203 3.42497L4.0849 3.48782C4.29318 3.67927 4.55278 3.80577 4.83191 3.85183C5.11104 3.89789 5.39758 3.86149 5.65633 3.74709C5.91866 3.64228 6.1454 3.46444 6.30973 3.23466C6.47406 3.00488 6.56907 2.7328 6.58346 2.45067V2.27781C6.59876 2.16724 6.65482 2.06637 6.74062 1.99497C6.82207 1.92783 6.92597 1.89413 7.03133 1.90068C7.14517 1.916 7.24949 1.97235 7.32472 2.05916C7.39995 2.14596 7.44089 2.25723 7.43987 2.37209V2.45854C7.45108 2.73744 7.54327 3.00705 7.70511 3.23447C7.86696 3.46189 8.09148 3.63728 8.35132 3.73925C8.60987 3.85466 8.89657 3.89159 9.17593 3.8455C9.45528 3.79941 9.71498 3.6723 9.92275 3.47995L10.0484 3.36997C10.0906 3.33207 10.1407 3.30397 10.195 3.28767C10.2494 3.27137 10.3067 3.26728 10.3627 3.27568C10.4158 3.27943 10.4675 3.29389 10.5147 3.3182C10.562 3.34251 10.6038 3.37616 10.6377 3.41711C10.7061 3.50739 10.739 3.61956 10.7303 3.73247C10.7216 3.84537 10.6719 3.9512 10.5906 4.02996L10.5277 4.09281C10.3363 4.30109 10.2098 4.56074 10.1637 4.83987C10.1177 5.119 10.1541 5.40549 10.2685 5.66424C10.3716 5.92768 10.549 6.15553 10.7792 6.32011C11.0093 6.48469 11.2822 6.57893 11.5649 6.5914H11.6591C11.7723 6.59079 11.8816 6.63228 11.9658 6.70779C12.0501 6.7833 12.1032 6.88745 12.1149 6.99996C12.1159 7.05672 12.1058 7.11311 12.085 7.16594C12.0642 7.21877 12.0333 7.26701 11.9939 7.30787C11.9545 7.34872 11.9074 7.38142 11.8554 7.40409C11.8033 7.42676 11.7474 7.43894 11.6906 7.43996H11.557C11.2778 7.45355 11.0082 7.54652 10.78 7.70796C10.5517 7.86941 10.3743 8.09262 10.2685 8.35139C10.1581 8.61144 10.1245 8.89771 10.1719 9.17624C10.2192 9.45476 10.3454 9.71386 10.5356 9.92282L10.6456 10.0407C10.7159 10.1257 10.7504 10.2349 10.7416 10.3449C10.7328 10.4549 10.6814 10.5572 10.5985 10.63C10.5082 10.6983 10.396 10.7312 10.2831 10.7226C10.1702 10.7139 10.0643 10.6642 9.98557 10.5828L9.92275 10.52C9.71396 10.3294 9.45436 10.2035 9.17545 10.1574C8.89653 10.1114 8.61027 10.1473 8.35132 10.2607C8.08674 10.3621 7.85777 10.5391 7.69293 10.7696C7.52809 11.0001 7.43466 11.2739 7.42418 11.5571V11.73C7.40888 11.8405 7.35283 11.9414 7.26703 12.0128C7.18317 12.0812 7.07636 12.1149 6.96846 12.1071C6.85673 12.0885 6.75517 12.031 6.68182 11.9447C6.60847 11.8584 6.56806 11.7489 6.56773 11.6357V11.5493C6.55458 11.2709 6.46168 11.0021 6.30009 10.7751C6.1385 10.548 5.91504 10.3722 5.65633 10.2685ZM5.47237 8.52785C5.87759 8.93307 6.42715 9.16071 7.00021 9.16071C7.57327 9.16071 8.12288 8.93307 8.52809 8.52785C8.93331 8.12264 9.16092 7.57305 9.16092 6.99999C9.16092 6.42694 8.93331 5.87735 8.52809 5.47213C8.12288 5.06692 7.57327 4.83928 7.00021 4.83928C6.42715 4.83928 5.87759 5.06692 5.47237 5.47213C5.06716 5.87735 4.8395 6.42694 4.8395 6.99999C4.8395 7.57305 5.06716 8.12264 5.47237 8.52785ZM6.30576 6.30552C6.48994 6.12133 6.73973 6.01785 7.00021 6.01785C7.26069 6.01785 7.51052 6.12133 7.69471 6.30552C7.8789 6.4897 7.98235 6.73951 7.98235 6.99999C7.98235 7.26047 7.8789 7.51028 7.69471 7.69447C7.51052 7.87866 7.26069 7.98214 7.00021 7.98214C6.73973 7.98214 6.48994 7.87866 6.30576 7.69447C6.12157 7.51028 6.01807 7.26047 6.01807 6.99999C6.01807 6.73951 6.12157 6.4897 6.30576 6.30552Z" fill="white"/>
</svg>
