<svg width="16" height="16" viewBox="0 0 16 16" fill="none" xmlns="http://www.w3.org/2000/svg">
<path fill-rule="evenodd" clip-rule="evenodd" d="M0.990234 15.75H3.49023C3.58912 15.75 3.68703 15.7303 3.77814 15.6918C3.86925 15.6534 3.95171 15.5971 4.02069 15.5262C4.08967 15.4554 4.14376 15.3714 4.17975 15.2793C4.21574 15.1872 4.23296 15.0888 4.23029 14.99V14.24H4.98029C5.07915 14.2413 5.17726 14.2228 5.26886 14.1856C5.36046 14.1484 5.4437 14.0932 5.51361 14.0233C5.58352 13.9534 5.63869 13.8702 5.6759 13.7786C5.71312 13.687 5.73163 13.5889 5.73029 13.49V12.74H6.48029C6.67913 12.7398 6.86974 12.6607 7.01025 12.52L8.11023 11.43C9.38 11.8708 10.7646 11.8496 12.0203 11.37C12.7275 11.1077 13.3754 10.7073 13.9265 10.1923C14.4776 9.6773 14.9208 9.05785 15.2303 8.37C15.5415 7.68262 15.714 6.94061 15.7382 6.18646C15.7623 5.43232 15.6375 4.68079 15.371 3.97491C15.1044 3.26904 14.7013 2.62269 14.1847 2.07275C13.6681 1.52282 13.0481 1.08007 12.3602 0.769958C11.6165 0.429136 10.8083 0.251855 9.99023 0.25C8.46778 0.252634 7.00832 0.857869 5.93085 1.93347C4.85337 3.00907 4.24552 4.46754 4.24023 5.98999C4.24077 6.63343 4.34894 7.27225 4.56024 7.88L0.460266 11.97C0.319574 12.1105 0.240409 12.3012 0.240234 12.5V15C0.240234 15.1989 0.319248 15.3897 0.4599 15.5303C0.600552 15.671 0.791322 15.75 0.990234 15.75ZM2.74023 14.25H1.74023L1.77026 12.81L6.00024 8.58997C6.10765 8.48179 6.17956 8.34349 6.20636 8.19342C6.23316 8.04335 6.2136 7.88867 6.15027 7.75C5.90053 7.19682 5.771 6.59693 5.77026 5.98999C5.77554 4.86537 6.22531 3.78844 7.02148 2.99414C7.81766 2.19984 8.89563 1.75263 10.0203 1.75C10.6239 1.75185 11.2203 1.88135 11.7703 2.13C12.2816 2.35845 12.7422 2.68661 13.1251 3.09528C13.508 3.50395 13.8055 3.98492 14.0002 4.51001C14.1983 5.03197 14.2906 5.5881 14.2717 6.14606C14.2528 6.70401 14.1232 7.25264 13.8903 7.76001C13.6601 8.27074 13.33 8.73025 12.9196 9.11151C12.5091 9.49277 12.0265 9.78804 11.5002 9.97998C10.9783 10.178 10.4222 10.2703 9.8642 10.2515C9.30624 10.2326 8.75761 10.1029 8.25024 9.87C8.11009 9.81066 7.95554 9.79422 7.80603 9.82269C7.65652 9.85117 7.51881 9.92327 7.41028 10.03L6.18024 11.25H4.99023C4.79213 11.2526 4.60286 11.3324 4.46277 11.4725C4.32267 11.6126 4.24282 11.8019 4.24023 12V12.75H3.49023C3.29213 12.7526 3.10286 12.8324 2.96277 12.9725C2.82267 13.1126 2.74282 13.3019 2.74023 13.5V14.25ZM8.89929 7.091C9.32125 7.51296 9.8935 7.75 10.4902 7.75C11.087 7.75 11.6593 7.51296 12.0812 7.091C12.5032 6.66905 12.7402 6.09674 12.7402 5.5C12.7402 4.90326 12.5032 4.33095 12.0812 3.909C11.6593 3.48704 11.087 3.25 10.4902 3.25C9.8935 3.25 9.32125 3.48704 8.89929 3.909C8.47733 4.33095 8.24023 4.90326 8.24023 5.5C8.24023 6.09674 8.47733 6.66905 8.89929 7.091ZM9.96277 4.97253C10.1029 4.83244 10.2921 4.75259 10.4902 4.75C10.6891 4.75 10.8799 4.82901 11.0206 4.96967C11.1612 5.11032 11.2402 5.30109 11.2402 5.5C11.2416 5.59886 11.2231 5.69697 11.1859 5.78857C11.1487 5.88018 11.0935 5.96341 11.0236 6.03333C10.9536 6.10324 10.8705 6.1584 10.7789 6.19562C10.6873 6.23283 10.5891 6.25135 10.4902 6.25C10.2913 6.25 10.1006 6.17099 9.9599 6.03033C9.81925 5.88968 9.74023 5.69891 9.74023 5.5C9.74282 5.30189 9.82267 5.11263 9.96277 4.97253Z" fill="#0066FF"/>
</svg>
