<svg width="12" height="14" viewBox="0 0 12 14" fill="none" xmlns="http://www.w3.org/2000/svg">
<path d="M11.1306 3.44078L8.77346 1.08364C8.66305 0.973092 8.51324 0.910843 8.357 0.910706H2.07129C1.70662 0.910706 1.35689 1.05558 1.09903 1.31344C0.841163 1.5713 0.696289 1.92103 0.696289 2.28571V11.7143C0.696289 12.0789 0.841163 12.4287 1.09903 12.6865C1.35689 12.9444 1.70662 13.0893 2.07129 13.0893H9.92843C10.2931 13.0893 10.6428 12.9444 10.9007 12.6865C11.1586 12.4287 11.3034 12.0789 11.3034 11.7143V3.85713C11.3033 3.7009 11.2411 3.55118 11.1306 3.44078V3.44078ZM4.62486 2.08928H7.37486V4.05356H4.62486V2.08928ZM7.37486 11.9107H4.62486V8.37499H7.37486V11.9107ZM10.1249 11.7143C10.1249 11.7664 10.1042 11.8164 10.0674 11.8533C10.0305 11.8901 9.98053 11.9107 9.92843 11.9107H8.55343V7.78571C8.5514 7.63005 8.48866 7.48134 8.37858 7.37127C8.26851 7.26119 8.1198 7.19845 7.96415 7.19642H4.03557C3.87929 7.19642 3.7294 7.25855 3.61888 7.36906C3.50837 7.47957 3.44629 7.62942 3.44629 7.78571V11.9107H2.07129C2.01919 11.9107 1.96925 11.8901 1.93241 11.8533C1.89557 11.8164 1.87486 11.7664 1.87486 11.7143V2.28571C1.87486 2.23361 1.89557 2.18366 1.93241 2.14682C1.96925 2.10999 2.01919 2.08928 2.07129 2.08928H3.44629V4.64285C3.44523 4.72053 3.45978 4.79771 3.48902 4.86968C3.51826 4.94165 3.5616 5.00696 3.61653 5.06189C3.67147 5.11682 3.73687 5.16021 3.80884 5.18945C3.88081 5.21869 3.9579 5.23319 4.03557 5.23213H7.96415C8.12043 5.23213 8.27033 5.1701 8.38084 5.05959C8.49135 4.94908 8.55343 4.79914 8.55343 4.64285V2.52932L10.1249 4.10075V11.7143Z" fill="white"/>
</svg>
