<svg width="22" height="22" viewBox="0 0 22 22" fill="none" xmlns="http://www.w3.org/2000/svg">
<path d="M17.118 8.83718L11.7652 14.19C11.6543 14.3009 11.5052 14.3582 11.3599 14.3582C11.2146 14.3582 11.0655 14.3009 10.9547 14.19L9.6394 12.8747L8.32414 14.19C8.21326 14.3009 8.06414 14.3582 7.91885 14.3582C7.77356 14.3582 7.62445 14.3009 7.51357 14.19L4.88305 11.5556C4.65747 11.3339 4.65747 10.9706 4.88305 10.7451C5.10481 10.5233 5.46804 10.5233 5.69362 10.7451L7.91885 12.9703L8.82883 12.0603L8.32414 11.5556C8.09856 11.3339 8.09856 10.9706 8.32414 10.7451C8.5459 10.5233 8.90912 10.5233 9.1347 10.7451L9.6394 11.2498L12.8664 8.02661C13.0881 7.80103 13.4514 7.80103 13.6769 8.02661C13.8987 8.24837 13.8987 8.61159 13.6769 8.83718L10.4538 12.0641L11.3599 12.9703L16.3075 8.02661C16.5292 7.80103 16.8924 7.80103 17.118 8.02661C17.3398 8.24837 17.3398 8.61159 17.118 8.83718Z" fill="#1D2327"/>
</svg>
