<svg width="28" height="28" viewBox="0 0 28 28" fill="none" xmlns="http://www.w3.org/2000/svg">
<path d="M9.07814 15.553H7.61689C7.52013 15.5484 7.42693 15.5151 7.34906 15.4575C7.27119 15.3999 7.21215 15.3204 7.17939 15.2293C7.14616 15.1358 7.14262 15.0344 7.16925 14.9389C7.19587 14.8433 7.25137 14.7583 7.32814 14.6955C7.73466 14.3949 8.08305 14.0228 8.35627 13.5974C8.35627 13.5099 8.35627 13.3612 8.23814 13.3218C8.14647 13.3024 8.05136 13.3066 7.96179 13.3342C7.87223 13.3618 7.79117 13.4117 7.72627 13.4793C7.68185 13.5248 7.62877 13.561 7.57017 13.5856C7.51156 13.6103 7.44861 13.6231 7.38502 13.6231C7.32142 13.6231 7.25847 13.6103 7.19987 13.5856C7.14126 13.561 7.08819 13.5248 7.04377 13.4793C6.99879 13.4346 6.9631 13.3814 6.93875 13.3228C6.91439 13.2643 6.90186 13.2015 6.90186 13.138C6.90186 13.0746 6.91439 13.0118 6.93875 12.9532C6.9631 12.8947 6.99879 12.8415 7.04377 12.7968C7.24192 12.5929 7.49449 12.4503 7.7714 12.3859C8.04831 12.3216 8.33788 12.3381 8.60564 12.4337C8.83361 12.5331 9.02485 12.7012 9.15269 12.9145C9.28053 13.1278 9.33859 13.3757 9.31877 13.6237C9.27047 13.9893 9.10103 14.3281 8.83752 14.5862H9.07814C9.14549 14.5797 9.21344 14.5875 9.27763 14.6089C9.34182 14.6302 9.40083 14.6648 9.45089 14.7103C9.50095 14.7558 9.54094 14.8113 9.56831 14.8732C9.59567 14.935 9.60981 15.0019 9.60981 15.0696C9.60981 15.1373 9.59567 15.2042 9.56831 15.266C9.54094 15.3279 9.50095 15.3834 9.45089 15.4289C9.40083 15.4744 9.34182 15.509 9.27763 15.5303C9.21344 15.5517 9.14549 15.5594 9.07814 15.553Z" fill="#1D2327"/>
<path d="M20.1686 10.338H11.4798C11.2726 10.3229 11.0788 10.2299 10.9374 10.0777C10.7959 9.92552 10.7173 9.72545 10.7173 9.51769C10.7173 9.30993 10.7959 9.10986 10.9374 8.95769C11.0788 8.80552 11.2726 8.71252 11.4798 8.69738H20.1686C20.2814 8.68914 20.3946 8.70423 20.5013 8.74172C20.6079 8.77921 20.7057 8.83829 20.7885 8.91527C20.8713 8.99225 20.9374 9.08548 20.9826 9.18913C21.0277 9.29278 21.051 9.40463 21.051 9.51769C21.051 9.63075 21.0277 9.7426 20.9826 9.84625C20.9374 9.9499 20.8713 10.0431 20.7885 10.1201C20.7057 10.1971 20.6079 10.2562 20.5013 10.2937C20.3946 10.3311 20.2814 10.3462 20.1686 10.338Z" fill="#1D2327"/>
<path d="M20.1686 14.6825H11.4798C11.2726 14.6673 11.0788 14.5743 10.9374 14.4222C10.7959 14.27 10.7173 14.0699 10.7173 13.8622C10.7173 13.6544 10.7959 13.4543 10.9374 13.3022C11.0788 13.15 11.2726 13.057 11.4798 13.0419H20.1686C20.2814 13.0336 20.3946 13.0487 20.5013 13.0862C20.6079 13.1237 20.7057 13.1828 20.7885 13.2598C20.8713 13.3367 20.9374 13.43 20.9826 13.5336C21.0277 13.6373 21.051 13.7491 21.051 13.8622C21.051 13.9752 21.0277 14.0871 20.9826 14.1907C20.9374 14.2944 20.8713 14.3876 20.7885 14.4646C20.7057 14.5416 20.6079 14.6006 20.5013 14.6381C20.3946 14.6756 20.2814 14.6907 20.1686 14.6825Z" fill="#1D2327"/>
<path d="M20.1686 19.0268H11.4798C11.2726 19.0117 11.0788 18.9187 10.9374 18.7665C10.7959 18.6144 10.7173 18.4143 10.7173 18.2065C10.7173 17.9988 10.7959 17.7987 10.9374 17.6465C11.0788 17.4944 11.2726 17.4014 11.4798 17.3862H20.1686C20.2814 17.378 20.3946 17.3931 20.5013 17.4306C20.6079 17.4681 20.7057 17.5271 20.7885 17.6041C20.8713 17.6811 20.9374 17.7743 20.9826 17.878C21.0277 17.9816 21.051 18.0935 21.051 18.2065C21.051 18.3196 21.0277 18.4314 20.9826 18.5351C20.9374 18.6387 20.8713 18.732 20.7885 18.8089C20.7057 18.8859 20.6079 18.945 20.5013 18.9825C20.3946 19.02 20.2814 19.0351 20.1686 19.0268Z" fill="#1D2327"/>
<path d="M8.57913 11.69C8.45149 11.69 8.32908 11.6393 8.23883 11.549C8.14858 11.4588 8.09788 11.3364 8.09788 11.2087V9.27937H7.61663C7.54928 9.28578 7.48133 9.27805 7.41714 9.25667C7.35295 9.2353 7.29394 9.20074 7.24388 9.15523C7.19382 9.10971 7.15383 9.05424 7.12646 8.99237C7.0991 8.93049 7.08496 8.86358 7.08496 8.79593C7.08496 8.72827 7.0991 8.66136 7.12646 8.59949C7.15383 8.53762 7.19382 8.48214 7.24388 8.43663C7.29394 8.39111 7.35295 8.35656 7.41714 8.33518C7.48133 8.31381 7.54928 8.30608 7.61663 8.31249H8.57913C8.64363 8.31074 8.70783 8.32187 8.76799 8.34522C8.82814 8.36857 8.88304 8.40367 8.92947 8.44847C8.97591 8.49328 9.01295 8.54689 9.03843 8.60617C9.06391 8.66545 9.07732 8.72922 9.07788 8.79374V11.2087C9.07732 11.2733 9.06391 11.337 9.03843 11.3963C9.01295 11.4556 8.97591 11.5092 8.92947 11.554C8.88304 11.5988 8.82814 11.6339 8.76799 11.6573C8.70783 11.6806 8.64363 11.6917 8.57913 11.69Z" fill="#1D2327"/>
<path d="M7.37187 20.1249C7.24424 20.1249 7.12183 20.0742 7.03158 19.984C6.94133 19.8937 6.89062 19.7713 6.89062 19.6437C6.89062 19.516 6.94133 19.3936 7.03158 19.3034C7.12183 19.2131 7.24424 19.1624 7.37187 19.1624C7.69027 19.1882 8.01075 19.1631 8.32125 19.088C8.32348 19.0545 8.32348 19.0209 8.32125 18.9874C8.19 18.9087 7.93187 18.7818 7.62125 18.6287C7.53891 18.589 7.46943 18.5269 7.42081 18.4495C7.37219 18.3721 7.3464 18.2826 7.3464 18.1912C7.3464 18.0998 7.37219 18.0102 7.42081 17.9328C7.46943 17.8554 7.53891 17.7933 7.62125 17.7537C7.94938 17.6224 8.20313 17.4999 8.33438 17.4168C8.34121 17.3821 8.34121 17.3465 8.33438 17.3118C8.02474 17.2407 7.7061 17.2171 7.38937 17.2418C7.26174 17.2418 7.13933 17.1911 7.04908 17.1008C6.95883 17.0106 6.90812 16.8882 6.90812 16.7605C6.90812 16.6329 6.95883 16.5105 7.04908 16.4203C7.13933 16.33 7.26174 16.2793 7.38937 16.2793C8.33875 16.2793 9.32313 16.2793 9.32313 17.4824C9.33613 17.6341 9.30081 17.7861 9.22223 17.9165C9.14365 18.047 9.02583 18.1492 8.88563 18.2087C9.02548 18.2673 9.14316 18.3688 9.22176 18.4985C9.30036 18.6282 9.33585 18.7794 9.32313 18.9305C9.30563 20.1249 8.32125 20.1249 7.37187 20.1249Z" fill="#1D2327"/>
</svg>
