<svg width="22" height="22" viewBox="0 0 22 22" fill="none" xmlns="http://www.w3.org/2000/svg">
<path d="M13.8383 17.2853H6.94428C5.71553 17.2853 4.71387 16.2836 4.71387 15.0549V8.16088C4.71387 6.93213 5.71553 5.93047 6.94428 5.93047H10.5941C10.9306 5.93047 11.2023 6.20217 11.2023 6.53876C11.2023 6.87535 10.9306 7.14706 10.5941 7.14706H6.94428C6.38465 7.14706 5.93046 7.60125 5.93046 8.16088V15.0549C5.93046 15.6145 6.38465 16.0687 6.94428 16.0687H13.8383C14.3979 16.0687 14.8521 15.6145 14.8521 15.0549V11.4051C14.8521 11.0685 15.1238 10.7968 15.4604 10.7968C15.797 10.7968 16.0687 11.0685 16.0687 11.4051V15.0549C16.0687 16.2836 15.067 17.2853 13.8383 17.2853Z" fill="white"/>
<path d="M17.2854 5.32216V8.97193C17.2854 9.30852 17.0137 9.58023 16.6771 9.58023C16.3405 9.58023 16.0688 9.30852 16.0688 8.97193V6.79018L10.6185 12.2405C10.5009 12.3581 10.3427 12.4189 10.1886 12.4189C10.0345 12.4189 9.87636 12.3581 9.75876 12.2405C9.51949 12.0053 9.51949 11.616 9.75876 11.3808L15.2091 5.93046H13.0273C12.6907 5.93046 12.419 5.65875 12.419 5.32216C12.419 4.98557 12.6907 4.71387 13.0273 4.71387H16.6771C17.0137 4.71387 17.2854 4.98557 17.2854 5.32216Z" fill="white"/>
</svg>
