<svg width="28" height="28" viewBox="0 0 28 28" fill="none" xmlns="http://www.w3.org/2000/svg">
<path d="M22 14.0346C22 14.5887 21.5152 15.0736 20.961 15.0736H15.0043V21.0303C15.0043 21.5844 14.5195 22.0693 13.9654 22.0693C13.4113 22.0693 12.9264 21.5844 12.9264 21.0303V15.0736H7.03896C6.48485 15.0736 6 14.5887 6 14.0346C6 13.4805 6.48485 12.9957 7.03896 12.9957H12.9957V7.03896C12.9957 6.48485 13.4805 6 14.0346 6C14.5887 6 15.0736 6.48485 15.0736 7.03896V12.9957H21.0303C21.5844 12.9957 22.0693 13.4805 22.0693 14.0346H22Z" fill="#4C5866"/>
</svg>
