<svg width="22" height="22" viewBox="0 0 22 22" fill="none" xmlns="http://www.w3.org/2000/svg">
<path d="M17.2853 10.9996C17.2833 12.6139 16.6411 14.1615 15.4996 15.3031C14.358 16.4446 12.8104 17.0868 11.1961 17.0889C10.3963 17.0897 9.60424 16.9326 8.86534 16.6265C8.12645 16.3204 7.45528 15.8714 6.89036 15.3053C6.83477 15.2511 6.79057 15.1864 6.7604 15.1149C6.73023 15.0433 6.7147 14.9665 6.7147 14.8889C6.7147 14.8112 6.73023 14.7344 6.7604 14.6629C6.79057 14.5914 6.83477 14.5266 6.89036 14.4724C6.94454 14.4168 7.00928 14.3727 7.0808 14.3425C7.15232 14.3123 7.22915 14.2968 7.30677 14.2968C7.38439 14.2968 7.46127 14.3123 7.53279 14.3425C7.60431 14.3727 7.66905 14.4168 7.72322 14.4724C8.17828 14.9298 8.71954 15.2924 9.31565 15.5392C9.91177 15.786 10.5509 15.9121 11.1961 15.9103C12.4972 15.9062 13.7439 15.3874 14.6639 14.4674C15.584 13.5474 16.1026 12.3007 16.1068 10.9996C16.1047 9.69782 15.5867 8.44997 14.6662 7.52948C13.7457 6.60899 12.4978 6.09095 11.1961 6.08887C10.2961 6.08526 9.41446 6.34326 8.65841 6.83148C7.90237 7.31971 7.3045 8.01711 6.93751 8.83887H8.05321C8.20949 8.83887 8.35939 8.90095 8.4699 9.01147C8.58041 9.12198 8.64249 9.27187 8.64249 9.42816C8.64046 9.58381 8.57772 9.73252 8.46764 9.84259C8.35757 9.95267 8.20886 10.0154 8.05321 10.0174H5.30321C5.14692 10.0174 4.99703 9.95536 4.88652 9.84484C4.776 9.73433 4.71392 9.58444 4.71392 9.42816V6.67816C4.71286 6.60048 4.72741 6.52337 4.75665 6.4514C4.78589 6.37943 4.82923 6.31404 4.88417 6.25911C4.9391 6.20418 5.0045 6.16082 5.07647 6.13157C5.14844 6.10233 5.22553 6.08781 5.30321 6.08887C5.45949 6.08887 5.60939 6.15095 5.7199 6.26147C5.83041 6.37198 5.89249 6.52187 5.89249 6.67816V8.29673C6.3552 7.28048 7.10224 6.41993 8.04338 5.819C8.98451 5.21807 10.0795 4.90247 11.1961 4.9103C12.8104 4.91238 14.358 5.55459 15.4996 6.69611C16.6411 7.83762 17.2833 9.38524 17.2853 10.9996Z" fill="#A3B0C2"/>
</svg>
