<svg width="28" height="28" viewBox="0 0 28 28" fill="none" xmlns="http://www.w3.org/2000/svg">
<path fill-rule="evenodd" clip-rule="evenodd" d="M13.7796 22H13.9996C14.522 22.0275 15.0345 21.8493 15.4271 21.5035C15.8196 21.1576 16.0611 20.6717 16.0996 20.15V20V19.85C16.1077 19.7747 16.1375 19.7034 16.1855 19.6448C16.2334 19.5862 16.2974 19.5428 16.3696 19.5199C16.4318 19.4917 16.501 19.4824 16.5685 19.4931C16.6361 19.5037 16.699 19.5339 16.7496 19.5799L16.8096 19.63C17.1679 19.9867 17.6444 20.1999 18.1492 20.2294C18.654 20.2588 19.1521 20.1026 19.5496 19.79C19.7631 19.6253 19.9411 19.4191 20.0729 19.1839C20.2047 18.9486 20.2876 18.6892 20.3166 18.4211C20.3455 18.153 20.32 17.8818 20.2414 17.6238C20.1629 17.3659 20.033 17.1265 19.8595 16.92L19.7596 16.81L19.6496 16.69C19.6049 16.6408 19.5747 16.5802 19.5624 16.5149C19.55 16.4495 19.556 16.3821 19.5796 16.32V16.26C19.6046 16.1973 19.6471 16.1432 19.7021 16.1042C19.7571 16.0652 19.8222 16.0429 19.8896 16.04H19.7896C20.0597 16.0335 20.3258 15.9737 20.5727 15.864C20.8197 15.7543 21.0425 15.5969 21.2283 15.4008C21.4142 15.2047 21.5594 14.9738 21.6558 14.7214C21.7521 14.469 21.7976 14.2 21.7896 13.93C21.7934 13.8734 21.7934 13.8166 21.7896 13.76C21.7254 13.2708 21.4886 12.8207 21.1219 12.4907C20.7553 12.1607 20.2828 11.9724 19.7896 11.96H19.7096C19.633 11.956 19.5597 11.9276 19.5003 11.8791C19.4409 11.8305 19.3986 11.7643 19.3796 11.69C19.3533 11.6296 19.344 11.5632 19.3528 11.498C19.3617 11.4327 19.3882 11.3712 19.4296 11.32L19.4896 11.26C19.8424 10.8995 20.053 10.4235 20.0824 9.91991C20.1118 9.41633 19.9581 8.91908 19.6496 8.51995C19.4832 8.30943 19.2762 8.13455 19.0408 8.0057C18.8055 7.87685 18.5466 7.79667 18.2796 7.76995C18.0151 7.73882 17.7471 7.76084 17.4912 7.83468C17.2353 7.90852 16.9968 8.03271 16.7896 8.19997L16.6696 8.30996L16.5496 8.41997C16.4984 8.46489 16.4355 8.49435 16.3683 8.50497C16.301 8.51559 16.2321 8.50693 16.1696 8.47997C16.107 8.45789 16.0525 8.41743 16.0133 8.36391C15.9741 8.3104 15.9518 8.24628 15.9496 8.17995V8.08996C15.9463 7.5857 15.7599 7.09981 15.4251 6.72271C15.0903 6.34561 14.6299 6.10299 14.1296 6.03997C13.8628 6.00884 13.5925 6.03176 13.3348 6.10735C13.0771 6.18295 12.8372 6.30967 12.6296 6.47997C12.2086 6.81978 11.939 7.31223 11.8796 7.84997C11.8749 7.89986 11.8749 7.95007 11.8796 7.99996V8.20995C11.8741 8.28609 11.8452 8.3587 11.7969 8.41778C11.7485 8.47686 11.6831 8.51953 11.6095 8.53997C11.5485 8.56608 11.4814 8.57431 11.4159 8.56368C11.3504 8.55306 11.2892 8.52402 11.2396 8.47997L11.1796 8.42995C10.8203 8.07564 10.345 7.86327 9.84142 7.83202C9.33781 7.80078 8.83986 7.95278 8.43957 8.25997C8.22455 8.4247 8.04526 8.63137 7.91253 8.86748C7.77979 9.1036 7.6964 9.36423 7.66741 9.63354C7.63842 9.90284 7.66444 10.1752 7.74389 10.4342C7.82333 10.6931 7.95454 10.9333 8.12957 11.14L8.2196 11.25L8.33959 11.37C8.38561 11.4205 8.41578 11.4835 8.42644 11.551C8.43711 11.6185 8.42779 11.6877 8.39959 11.75V11.7999C8.3775 11.8625 8.33708 11.917 8.28356 11.9563C8.23004 11.9955 8.16593 12.0177 8.0996 12.02H8.00957C7.51462 12.0372 7.04188 12.2296 6.67559 12.5629C6.3093 12.8962 6.07326 13.3488 6.00957 13.84C5.97844 14.1067 6.00136 14.377 6.07696 14.6347C6.15255 14.8924 6.27928 15.1323 6.44958 15.34C6.61595 15.5505 6.82298 15.7254 7.05834 15.8542C7.2937 15.9831 7.55258 16.0632 7.81957 16.09H8.13958C8.21488 16.0933 8.28722 16.1202 8.34643 16.1668C8.40563 16.2135 8.44873 16.2775 8.4696 16.35C8.4954 16.4127 8.50343 16.4813 8.49285 16.5484C8.48227 16.6154 8.45348 16.6782 8.4096 16.73L8.3496 16.79C7.99865 17.1515 7.78937 17.6272 7.76 18.1302C7.73063 18.6332 7.88309 19.13 8.18957 19.53C8.35707 19.7416 8.56568 19.9172 8.80285 20.0461C9.04002 20.175 9.30084 20.2545 9.56957 20.28C9.83405 20.3111 10.1021 20.2891 10.358 20.2153C10.6138 20.1414 10.8523 20.0172 11.0596 19.85L11.1796 19.74L11.2996 19.63C11.3488 19.5853 11.4094 19.5551 11.4747 19.5427C11.54 19.5304 11.6075 19.5363 11.6696 19.56H11.7296C11.7922 19.582 11.8466 19.6225 11.8859 19.676C11.9251 19.7295 11.9473 19.7936 11.9496 19.8599V19.95C11.9574 20.4545 12.1467 20.9394 12.4827 21.3158C12.8188 21.6923 13.2792 21.9351 13.7796 22ZM12.2896 18.16C12.0539 18.0537 11.7982 17.9991 11.5396 18C11.0737 18.0033 10.6253 18.1777 10.2796 18.49L10.1196 18.63C10.0678 18.678 10.0058 18.7137 9.93829 18.7345C9.87076 18.7553 9.79945 18.7606 9.72961 18.75C9.66212 18.7452 9.59628 18.7268 9.53612 18.6959C9.47596 18.6649 9.4227 18.6221 9.37957 18.57C9.29258 18.4551 9.25066 18.3123 9.26171 18.1686C9.27276 18.0249 9.33603 17.8902 9.43957 17.79L9.50957 17.71C9.75603 17.4466 9.91964 17.1166 9.98009 16.761C10.0405 16.4055 9.99519 16.0399 9.8496 15.71C9.71831 15.3747 9.49247 15.0847 9.19958 14.8752C8.90668 14.6658 8.55931 14.5458 8.19958 14.53H7.97961C7.83887 14.5105 7.71044 14.4391 7.61956 14.3299C7.53411 14.2263 7.49123 14.094 7.49956 13.96C7.51705 13.815 7.58855 13.6821 7.69976 13.5875C7.81097 13.493 7.95377 13.4439 8.0996 13.45H8.20959C8.5639 13.4332 8.90594 13.315 9.19494 13.1093C9.48393 12.9036 9.70769 12.6192 9.83959 12.29C9.98391 11.9604 10.0295 11.596 9.97094 11.2411C9.91237 10.8861 9.75212 10.5557 9.50957 10.29L9.35955 10.14C9.27122 10.0305 9.22917 9.89083 9.24224 9.75075C9.25531 9.61068 9.32249 9.48124 9.42956 9.38998C9.54446 9.30298 9.68723 9.26103 9.83092 9.27209C9.97462 9.28314 10.1093 9.34643 10.2096 9.44997L10.2896 9.52996C10.5547 9.77363 10.8851 9.93463 11.2403 9.99325C11.5956 10.0519 11.9603 10.0055 12.2896 9.85995C12.6235 9.72654 12.9121 9.5002 13.1212 9.20776C13.3304 8.91531 13.4513 8.56902 13.4696 8.20995V7.98995C13.4891 7.84922 13.5604 7.72085 13.6696 7.62997C13.7733 7.54452 13.9055 7.50163 14.0396 7.50997C14.1845 7.52946 14.3173 7.60118 14.413 7.71166C14.5088 7.82214 14.5609 7.96375 14.5596 8.10995V8.21996C14.5738 8.57493 14.6912 8.91807 14.8971 9.20751C15.1031 9.49695 15.3889 9.72019 15.7196 9.84997C16.0487 9.99685 16.4136 10.0439 16.7691 9.98519C17.1246 9.92653 17.4552 9.76475 17.7196 9.51995L17.8796 9.37997C17.9333 9.33173 17.997 9.29597 18.0662 9.27523C18.1353 9.25448 18.2082 9.24927 18.2796 9.25997C18.3471 9.26474 18.4129 9.28314 18.473 9.31408C18.5332 9.34502 18.5864 9.38784 18.6296 9.43996C18.7166 9.55487 18.7585 9.69763 18.7474 9.84133C18.7364 9.98503 18.6731 10.1197 18.5696 10.22L18.4896 10.2999C18.2459 10.565 18.0849 10.8955 18.0263 11.2508C17.9677 11.606 18.014 11.9706 18.1596 12.2999C18.2909 12.6352 18.5167 12.9252 18.8096 13.1347C19.1025 13.3442 19.4498 13.4641 19.8096 13.48H19.9296C20.0735 13.4792 20.2127 13.532 20.3199 13.6281C20.4271 13.7242 20.4947 13.8568 20.5096 14C20.5109 14.0722 20.498 14.144 20.4715 14.2112C20.4451 14.2784 20.4057 14.3398 20.3556 14.3918C20.3054 14.4438 20.2455 14.4855 20.1793 14.5143C20.1131 14.5432 20.0418 14.5587 19.9696 14.56H19.7996C19.4442 14.5773 19.1011 14.6956 18.8106 14.9011C18.5201 15.1065 18.2943 15.3906 18.1596 15.72C18.0191 16.0509 17.9764 16.4153 18.0367 16.7698C18.0969 17.1243 18.2576 17.454 18.4996 17.72L18.6396 17.87C18.7291 17.9782 18.7729 18.1171 18.7617 18.2571C18.7505 18.3972 18.6852 18.5273 18.5796 18.62C18.4647 18.7069 18.3219 18.7489 18.1782 18.7378C18.0345 18.7268 17.8998 18.6635 17.7996 18.56L17.7196 18.48C17.4539 18.2374 17.1235 18.0771 16.7685 18.0186C16.4135 17.96 16.0492 18.0056 15.7196 18.15C15.3828 18.2791 15.0914 18.5043 14.8816 18.7977C14.6719 19.091 14.5529 19.4395 14.5396 19.7999V20.0199C14.5201 20.1607 14.4488 20.2891 14.3396 20.38C14.2329 20.4669 14.0969 20.5099 13.9596 20.5C13.8174 20.4763 13.6881 20.4031 13.5948 20.2933C13.5014 20.1834 13.45 20.0441 13.4496 19.9V19.79C13.4328 19.4357 13.3146 19.0936 13.1089 18.8046C12.9033 18.5156 12.6189 18.2919 12.2896 18.16ZM12.0555 15.9445C12.5712 16.4603 13.2707 16.75 14 16.75C14.7293 16.75 15.4289 16.4603 15.9446 15.9445C16.4603 15.4288 16.75 14.7293 16.75 14C16.75 13.2707 16.4603 12.5712 15.9446 12.0555C15.4289 11.5397 14.7293 11.25 14 11.25C13.2707 11.25 12.5712 11.5397 12.0555 12.0555C11.5398 12.5712 11.25 13.2707 11.25 14C11.25 14.7293 11.5398 15.4288 12.0555 15.9445ZM13.1161 13.1161C13.3506 12.8817 13.6685 12.75 14 12.75C14.3315 12.75 14.6495 12.8817 14.8839 13.1161C15.1183 13.3505 15.25 13.6685 15.25 14C15.25 14.3315 15.1183 14.6495 14.8839 14.8839C14.6495 15.1183 14.3315 15.25 14 15.25C13.6685 15.25 13.3506 15.1183 13.1161 14.8839C12.8817 14.6495 12.75 14.3315 12.75 14C12.75 13.6685 12.8817 13.3505 13.1161 13.1161Z" fill="#0066FF"/>
</svg>
