<svg width="16" height="16" viewBox="0 0 16 16" fill="none" xmlns="http://www.w3.org/2000/svg">
<path d="M15.0475 4.32701C15.219 4.10213 15.3115 3.82967 15.3115 3.54981C15.3115 3.26995 15.219 2.99749 15.0475 2.77261C15.0114 2.72701 14.9722 2.68374 14.9302 2.64307L13.512 1.27002C13.2866 1.05018 12.987 0.917014 12.6685 0.89511C12.35 0.873205 12.0341 0.964043 11.7791 1.15085C10.6178 0.541354 9.31874 0.222229 7.99889 0.222229C6.67905 0.222229 5.37994 0.541354 4.21864 1.15085C3.98757 0.983476 3.70707 0.893067 3.41887 0.893067C3.13068 0.893067 2.85018 0.983476 2.6191 1.15085L2.47515 1.27002L1.06755 2.64307C0.843923 2.86392 0.709548 3.15559 0.68899 3.46479C0.668431 3.77398 0.763061 4.08003 0.955582 4.32701C0.328392 5.45554 0 6.71798 0 8.00058C0 9.28318 0.328392 10.5456 0.955582 11.6742C0.783352 11.8987 0.690318 12.1713 0.690318 12.4514C0.690318 12.7314 0.783352 13.004 0.955582 13.2286C0.988052 13.2739 1.02561 13.3156 1.06755 13.3529L2.48048 14.7415C2.73146 14.9797 3.06806 15.1135 3.41887 15.1146C3.70586 15.1213 3.98644 15.0316 4.21331 14.8607C5.37856 15.4638 6.67869 15.7787 7.99889 15.7778C9.3192 15.7774 10.6185 15.4569 11.7791 14.8451C11.961 14.9807 12.176 15.0681 12.403 15.099H12.5789C12.8711 15.0972 13.1551 15.0046 13.3893 14.8348C13.4372 14.8027 13.4818 14.7662 13.5226 14.726L14.9302 13.3685C15.1563 13.1472 15.293 12.8544 15.3155 12.5434C15.338 12.2325 15.2448 11.924 15.0529 11.6742C15.6756 10.5441 16.0009 9.28184 16 7.99993C15.9991 6.71803 15.6719 5.45625 15.0475 4.32701ZM13.576 3.53426L13.5013 3.59126L11.4219 5.14566C11.2786 4.98486 11.1255 4.8326 10.9634 4.6897L12.5629 2.67416L12.6162 2.60162L13.576 3.53426ZM10.7394 2.39437L9.59843 3.86069C9.0855 3.68094 8.54416 3.58975 7.99889 3.59126C7.46422 3.59167 6.93373 3.68285 6.43134 3.86069L5.25835 2.39437C6.11428 1.99766 7.0506 1.79178 7.99889 1.79178C8.94719 1.79178 9.88351 1.99766 10.7394 2.39437V2.39437ZM2.20856 5.33737L3.73345 6.47727C3.3498 7.47109 3.3498 8.56635 3.73345 9.56017L2.20322 10.7001C1.79392 9.86168 1.58292 8.9449 1.58569 8.01696C1.58845 7.08901 1.80492 6.17343 2.21922 5.33737H2.20856ZM3.4562 13.3529L3.39222 13.4203L2.42716 12.4773L2.49647 12.4203L4.57588 10.8659C4.71815 11.0293 4.87324 11.1817 5.03974 11.3218L3.4562 13.3529ZM4.57588 5.13012L2.49647 3.57571L2.42716 3.51872L3.39222 2.58608L3.4562 2.65862L5.05574 4.67416C4.88243 4.81228 4.72187 4.96485 4.57588 5.13012V5.13012ZM5.25835 13.6172L6.43134 12.1508C6.93308 12.3299 7.46445 12.4177 7.99889 12.4099C8.54398 12.4205 9.08635 12.3327 9.59843 12.1508L10.7661 13.6379C9.90503 14.0354 8.96308 14.2399 8.0098 14.2363C7.05651 14.2327 6.11623 14.0211 5.25835 13.6172V13.6172ZM7.99889 10.8555C7.49106 10.8576 6.99199 10.727 6.55397 10.4773C6.09122 10.2298 5.71032 9.8596 5.45562 9.40991C5.43879 9.39821 5.42582 9.38201 5.4183 9.36328C5.1873 8.94601 5.06638 8.47958 5.06638 8.00576C5.06638 7.53194 5.1873 7.06552 5.4183 6.64825C5.42684 6.62709 5.43951 6.60774 5.45562 6.59126C5.71144 6.15647 6.08066 5.79488 6.52607 5.54291C6.97149 5.29095 7.47737 5.15751 7.99276 5.15604C8.50814 5.15457 9.01482 5.28512 9.46175 5.53454C9.90868 5.78396 10.2801 6.14344 10.5385 6.57676C10.797 7.01008 10.9333 7.50194 10.9339 8.00278C10.9344 8.50363 10.7991 8.99576 10.5416 9.42961C10.2841 9.86345 9.91346 10.2237 9.46707 10.474C9.02068 10.7243 8.51428 10.8559 7.99889 10.8555V10.8555ZM12.6002 13.4203L12.5469 13.3529L10.9474 11.3374C11.1082 11.1932 11.2613 11.041 11.4059 10.8814L13.4693 12.4099L13.56 12.4773L12.6002 13.4203ZM13.7786 10.6742L12.2643 9.56017C12.6413 8.5741 12.6413 7.48924 12.2643 6.50317L13.7946 5.36328C14.1935 6.19532 14.3988 7.10255 14.3961 8.02045C14.3933 8.93836 14.1825 9.8444 13.7786 10.6742V10.6742Z" fill="#0066FF"/>
</svg>
