<?xml version="1.0" encoding="UTF-8"?>
<svg xmlns="http://www.w3.org/2000/svg" xmlns:xlink="http://www.w3.org/1999/xlink" width="28px" height="28px" viewBox="0 0 28 28" version="1.1">
<g id="surface1">
<rect x="0" y="0" width="28" height="28" style="fill:rgb(94.509804%,96.078431%,97.647059%);fill-opacity:1;stroke:none;"/>
<path style=" stroke:none;fill-rule:nonzero;fill:rgb(11.372549%,13.72549%,15.294118%);fill-opacity:1;" d="M 17.136719 15.148438 C 17.007812 15.320312 16.808594 15.425781 16.59375 15.425781 L 13.03125 15.425781 L 13.363281 15.757812 C 13.492188 15.886719 13.5625 16.054688 13.5625 16.234375 C 13.5625 16.414062 13.492188 16.582031 13.363281 16.710938 C 13.238281 16.835938 13.066406 16.90625 12.886719 16.90625 C 12.707031 16.90625 12.539062 16.835938 12.414062 16.710938 L 10.929688 15.226562 C 10.710938 15.003906 10.671875 14.660156 10.839844 14.390625 C 10.871094 14.339844 10.90625 14.304688 10.929688 14.277344 L 12.414062 12.796875 C 12.539062 12.667969 12.710938 12.597656 12.886719 12.597656 C 13.066406 12.597656 13.238281 12.667969 13.363281 12.796875 C 13.492188 12.921875 13.5625 13.089844 13.5625 13.273438 C 13.5625 13.453125 13.492188 13.621094 13.363281 13.746094 L 13.03125 14.082031 L 16.589844 14.082031 C 16.886719 14.082031 17.144531 14.265625 17.230469 14.542969 C 17.300781 14.753906 17.265625 14.976562 17.136719 15.148438 Z M 17.136719 15.148438 "/>
<path style=" stroke:none;fill-rule:nonzero;fill:rgb(11.372549%,13.72549%,15.294118%);fill-opacity:1;" d="M 17.070312 11.65625 L 15.589844 13.136719 C 15.457031 13.269531 15.28125 13.339844 15.109375 13.339844 C 15.003906 13.339844 14.902344 13.316406 14.808594 13.265625 C 14.613281 13.164062 14.480469 12.980469 14.445312 12.765625 C 14.414062 12.554688 14.484375 12.339844 14.636719 12.1875 L 14.96875 11.855469 L 11.410156 11.855469 C 11.113281 11.855469 10.855469 11.667969 10.769531 11.394531 C 10.699219 11.183594 10.734375 10.960938 10.863281 10.785156 C 10.992188 10.613281 11.191406 10.511719 11.40625 10.511719 L 14.96875 10.511719 L 14.636719 10.175781 C 14.507812 10.050781 14.4375 9.882812 14.4375 9.699219 C 14.4375 9.519531 14.507812 9.351562 14.636719 9.226562 C 14.761719 9.097656 14.933594 9.027344 15.113281 9.027344 C 15.292969 9.027344 15.460938 9.097656 15.585938 9.226562 L 17.070312 10.707031 C 17.332031 10.96875 17.332031 11.394531 17.070312 11.65625 Z M 17.070312 11.65625 "/>
<path style=" stroke:none;fill-rule:evenodd;fill:rgb(0%,40%,100%);fill-opacity:1;" d="M 3.757812 18.972656 C 3.546875 18.972656 3.378906 18.800781 3.378906 18.589844 C 3.378906 17.457031 3.800781 16.621094 4.515625 16.078125 C 5.21875 15.550781 6.152344 15.335938 7.132812 15.335938 C 8.113281 15.335938 9.046875 15.550781 9.746094 16.078125 C 10.464844 16.621094 10.886719 17.457031 10.886719 18.589844 C 10.886719 18.800781 10.71875 18.972656 10.507812 18.972656 Z M 3.757812 18.972656 "/>
<path style=" stroke:none;fill-rule:evenodd;fill:rgb(0%,40%,100%);fill-opacity:1;" d="M 4.878906 12.132812 C 4.878906 10.964844 5.824219 10.019531 6.992188 10.019531 C 8.15625 10.019531 9.105469 10.964844 9.105469 12.132812 C 9.105469 13.300781 8.15625 14.246094 6.992188 14.246094 C 5.824219 14.246094 4.878906 13.296875 4.878906 12.132812 Z M 4.878906 12.132812 "/>
<path style=" stroke:none;fill-rule:evenodd;fill:rgb(0%,40%,100%);fill-opacity:1;" d="M 17.492188 18.972656 C 17.28125 18.972656 17.109375 18.800781 17.109375 18.589844 C 17.109375 17.457031 17.535156 16.621094 18.25 16.078125 C 18.953125 15.550781 19.886719 15.335938 20.867188 15.335938 C 21.847656 15.335938 22.78125 15.550781 23.480469 16.078125 C 24.195312 16.621094 24.621094 17.457031 24.621094 18.589844 C 24.621094 18.800781 24.449219 18.972656 24.238281 18.972656 Z M 17.492188 18.972656 "/>
<path style=" stroke:none;fill-rule:evenodd;fill:rgb(0%,40%,100%);fill-opacity:1;" d="M 18.609375 12.132812 C 18.609375 10.964844 19.558594 10.019531 20.722656 10.019531 C 21.890625 10.019531 22.835938 10.964844 22.835938 12.132812 C 22.835938 13.300781 21.890625 14.246094 20.722656 14.246094 C 19.558594 14.246094 18.609375 13.296875 18.609375 12.132812 Z M 18.609375 12.132812 "/>
</g>
</svg>
