<svg width="28" height="28" viewBox="0 0 28 28" fill="none" xmlns="http://www.w3.org/2000/svg">
<path d="M23.7924 11.892L16.1078 4.20743C14.9437 3.04331 13.0563 3.04331 11.8922 4.20743L4.20765 11.892C3.04353 13.0561 3.04353 14.9435 4.20765 16.1076L11.8922 23.7921C13.0563 24.9562 14.9437 24.9562 16.1078 23.7921L23.7924 16.1076C24.9565 14.9435 24.9565 13.0561 23.7924 11.892Z" fill="#0066FF"/>
<path fill-rule="evenodd" clip-rule="evenodd" d="M19.4888 12.1304C19.6349 12.4878 19.665 12.7383 19.3985 12.9334C16.9953 14.6954 14.661 16.7819 12.5717 19.3305C12.2944 19.6693 12.0902 19.7042 11.7807 19.3448C10.8263 18.24 9.46565 17.0756 7.80194 15.751C7.62568 15.6134 7.70091 15.4347 7.84278 15.2314C8.24043 14.6544 8.61445 14.0198 9.06369 13.3832C9.27434 13.0874 9.50649 13.069 9.80097 13.2969C10.3061 13.6871 10.9531 14.1512 11.6495 14.7858C11.9483 15.0589 12.1934 15.0938 12.4341 14.8248C13.9108 13.184 15.7099 11.5739 17.7842 9.93512C18.0421 9.73387 18.2485 9.74619 18.4549 10.046C18.9385 10.7566 19.2244 11.4712 19.4931 12.1284L19.4888 12.1304Z" fill="white"/>
</svg>
