<svg width="14" height="14" viewBox="0 0 14 14" fill="none" xmlns="http://www.w3.org/2000/svg">
<path fill-rule="evenodd" clip-rule="evenodd" d="M13.0894 5.03577V1.50005C13.0894 1.34377 13.0273 1.19387 12.9168 1.08336C12.8063 0.97285 12.6564 0.910768 12.5001 0.910768H8.96442C8.88674 0.909711 8.80965 0.924209 8.73768 0.953449C8.66571 0.982689 8.60031 1.02608 8.54538 1.08101C8.49044 1.13594 8.4471 1.2013 8.41786 1.27327C8.38862 1.34524 8.37407 1.42238 8.37513 1.50005C8.37513 1.65634 8.43721 1.80623 8.54773 1.91675C8.65824 2.02726 8.80813 2.08934 8.96442 2.08934H11.078L5.79801 7.36932C5.74242 7.42349 5.69822 7.48823 5.66805 7.55975C5.63788 7.63127 5.62235 7.70815 5.62235 7.78577C5.62235 7.86339 5.63788 7.94022 5.66805 8.01174C5.69822 8.08326 5.74242 8.148 5.79801 8.20217C5.90937 8.3113 6.05852 8.37324 6.21442 8.37505C6.36999 8.37167 6.51863 8.30995 6.63087 8.20217L11.9108 2.92219V5.03577C11.9108 5.19206 11.9729 5.34195 12.0834 5.45246C12.194 5.56297 12.3438 5.62505 12.5001 5.62505C12.6558 5.62302 12.8045 5.56028 12.9146 5.45021C13.0246 5.34013 13.0874 5.19142 13.0894 5.03577ZM3.07185 13.0893H9.75042C10.3228 13.0872 10.8712 12.8589 11.276 12.4541C11.6808 12.0493 11.9091 11.501 11.9111 10.9286V7.39286C11.9111 7.23657 11.8491 7.08668 11.7385 6.97617C11.628 6.86565 11.4781 6.80357 11.3218 6.80357C11.2442 6.80251 11.1671 6.81701 11.0951 6.84625C11.0231 6.87549 10.9577 6.91888 10.9028 6.97382C10.8479 7.02875 10.8045 7.0941 10.7753 7.16607C10.746 7.23804 10.7315 7.31518 10.7326 7.39286V10.9286C10.7305 11.1884 10.6264 11.437 10.4426 11.6208C10.2589 11.8045 10.0103 11.9087 9.75042 11.9107H3.07185C2.812 11.9087 2.56339 11.8045 2.37965 11.6208C2.1959 11.437 2.09176 11.1884 2.0897 10.9286V4.25C2.0897 3.98952 2.19321 3.73969 2.37739 3.5555C2.56158 3.37131 2.81137 3.26786 3.07185 3.26786H6.60756C6.76322 3.26582 6.91192 3.20308 7.022 3.09301C7.13207 2.98293 7.19481 2.83423 7.19685 2.67857C7.19685 2.52228 7.13477 2.37239 7.02425 2.26188C6.91374 2.15137 6.76385 2.08929 6.60756 2.08929H3.07185C2.49879 2.08929 1.94922 2.3169 1.54401 2.72212C1.1388 3.12733 0.911133 3.67694 0.911133 4.25V10.9286C0.911133 11.5016 1.1388 12.0512 1.54401 12.4564C1.94922 12.8616 2.49879 13.0893 3.07185 13.0893Z" fill="white"/>
</svg>
