<svg width="22" height="22" viewBox="0 0 22 22" fill="none" xmlns="http://www.w3.org/2000/svg">
<path d="M18.694 9.34399L12.6561 3.30614C11.7415 2.39148 10.2585 2.39148 9.34386 3.30614L3.30601 9.34399C2.39135 10.2587 2.39135 11.7416 3.30601 12.6563L9.34386 18.6941C10.2585 19.6088 11.7415 19.6088 12.6561 18.6941L18.694 12.6563C19.6087 11.7416 19.6087 10.2587 18.694 9.34399Z" fill="#0066FF"/>
<path fill-rule="evenodd" clip-rule="evenodd" d="M15.3132 9.53122C15.428 9.81198 15.4517 10.0088 15.2423 10.1621C13.3541 11.5466 11.5199 13.1859 9.87835 15.1884C9.66048 15.4546 9.50003 15.482 9.25683 15.1997C8.50697 14.3316 7.4379 13.4167 6.13069 12.3759C5.9922 12.2678 6.05132 12.1274 6.16278 11.9677C6.47523 11.5143 6.7691 11.0157 7.12207 10.5155C7.28759 10.2831 7.46999 10.2686 7.70136 10.4477C8.09825 10.7543 8.60661 11.119 9.15381 11.6176C9.38857 11.8322 9.5811 11.8596 9.77026 11.6482C10.9305 10.359 12.3441 9.09394 13.9739 7.80632C14.1766 7.64819 14.3387 7.65787 14.5008 7.89345C14.8808 8.45175 15.1055 9.01327 15.3166 9.52961L15.3132 9.53122Z" fill="white"/>
</svg>
