<svg width="10" height="14" viewBox="0 0 10 14" fill="none" xmlns="http://www.w3.org/2000/svg">
<path d="M4.72481 13.4821C4.43307 13.4821 4.1533 13.3663 3.94701 13.16C3.74072 12.9537 3.62479 12.6739 3.62479 12.3821V8.375H1.58195C1.29021 8.375 1.01044 8.25912 0.804151 8.05283C0.597861 7.84654 0.481934 7.56672 0.481934 7.27498V7.1572C0.48266 6.94234 0.545444 6.73224 0.66268 6.55219L4.3555 1.05219C4.45624 0.900475 4.59286 0.77588 4.7532 0.68954C4.91354 0.603201 5.09271 0.557777 5.27482 0.557181C5.56656 0.557181 5.84633 0.673061 6.05262 0.879351C6.25891 1.08564 6.37479 1.36546 6.37479 1.6572V5.66432H8.41768C8.70941 5.66432 8.98919 5.7802 9.19548 5.98649C9.40177 6.19278 9.51765 6.47261 9.51765 6.76434V6.88999C9.51791 7.10616 9.45212 7.31726 9.32908 7.495L5.63622 12.995C5.53684 13.1456 5.40146 13.2691 5.24231 13.3542C5.08315 13.4393 4.90527 13.4832 4.72481 13.4821ZM1.6605 7.19643H4.21408C4.36973 7.19846 4.51844 7.2612 4.62851 7.37128C4.73859 7.48135 4.80133 7.63006 4.80336 7.78571V12.1229L8.33908 6.80357H5.7855C5.70783 6.80463 5.63074 6.79013 5.55877 6.76089C5.4868 6.73165 5.4214 6.68826 5.36646 6.63333C5.31153 6.57839 5.26819 6.513 5.23895 6.44102C5.20971 6.36905 5.19516 6.29196 5.19622 6.21429V1.87713L1.6605 7.19643Z" fill="white"/>
</svg>
